{"glyphs":{"0":{"ha":772,"x_min":0,"x_max":0,"o":"m 61 469 b 124 140 61 297 92 204 b 381 -19 165 56 253 -19 b 572 54 424 -19 504 -10 b 706 492 660 136 706 264 b 383 981 706 672 671 981 b 61 469 78 981 61 613 z m 194 476 b 385 869 194 649 217 869 b 571 479 531 869 571 710 b 382 96 571 307 543 96 b 194 476 236 96 194 263 z "},"1":{"ha":772,"x_min":0,"x_max":0,"o":"m 376 0 l 510 0 l 510 961 l 386 961 b 153 810 332 915 243 857 l 153 671 b 376 810 221 703 317 760 z "},"2":{"ha":772,"x_min":0,"x_max":0,"o":"m 74 0 l 685 0 l 685 110 l 228 110 l 396 269 b 574 458 424 297 546 424 b 682 699 678 590 682 638 b 385 979 682 904 532 979 b 176 910 324 979 243 967 b 88 699 93 838 89 746 l 233 699 b 390 867 233 735 236 867 b 544 710 528 867 544 757 b 474 539 544 658 529 615 b 325 374 431 481 378 425 l 74 126 z "},"3":{"ha":772,"x_min":0,"x_max":0,"o":"m 53 247 b 110 76 54 207 56 138 b 374 -24 171 6 272 -24 b 707 260 597 -24 707 125 b 501 493 707 279 707 464 b 693 719 650 526 693 640 b 379 979 693 853 589 979 b 68 717 301 979 76 956 l 208 717 b 383 868 221 836 311 868 b 553 717 479 868 553 825 b 296 550 553 561 392 542 l 296 438 b 429 431 344 439 379 440 b 568 261 500 415 568 363 b 376 90 568 176 511 90 b 200 247 258 90 199 156 z "},"4":{"ha":772,"x_min":0,"x_max":0,"o":"m 472 0 l 606 0 l 606 208 l 746 208 l 746 321 l 606 321 l 606 974 l 456 974 l 39 374 l 39 208 l 472 208 z m 144 321 l 476 828 l 476 321 z "},"5":{"ha":772,"x_min":0,"x_max":0,"o":"m 78 228 b 364 -22 85 64 208 -22 b 707 310 574 -22 707 121 b 419 626 707 475 613 626 b 217 538 307 626 246 567 l 235 849 l 656 849 l 656 961 l 115 961 l 90 389 l 217 389 b 261 469 224 411 232 440 b 390 519 290 499 335 519 b 572 313 501 519 572 443 b 382 92 572 250 550 92 b 222 228 310 92 225 131 z "},"6":{"ha":772,"x_min":0,"x_max":0,"o":"m 708 733 b 657 889 707 771 706 832 b 426 981 624 925 553 981 b 71 438 122 981 71 647 b 158 83 71 315 88 178 b 396 -21 210 17 303 -21 b 721 315 561 -21 721 92 b 431 624 721 519 588 624 b 207 501 290 624 238 546 b 419 876 219 757 281 876 b 565 733 481 876 564 846 z m 401 85 b 217 301 294 85 217 176 b 408 517 217 411 279 517 b 588 303 568 517 588 371 b 401 85 588 146 488 85 z "},"7":{"ha":772,"x_min":0,"x_max":0,"o":"m 49 846 l 543 846 l 174 0 l 331 0 l 683 844 l 683 961 l 49 961 z "},"8":{"ha":772,"x_min":0,"x_max":0,"o":"m 264 507 b 125 433 221 493 171 479 b 51 257 76 388 51 321 b 136 64 51 183 85 111 b 385 -17 206 0 303 -17 b 715 265 624 -17 715 133 b 506 508 715 451 563 493 b 701 726 640 533 701 632 b 382 983 701 874 585 983 b 71 721 129 983 71 807 b 264 507 71 625 136 535 z m 568 724 b 383 568 568 629 489 568 b 206 724 283 568 206 631 b 388 881 206 819 285 881 b 568 724 503 881 568 811 z m 192 269 b 388 450 192 371 269 450 b 576 274 497 450 576 381 b 385 93 576 201 539 93 b 192 269 242 93 192 194 z "},"9":{"ha":772,"x_min":0,"x_max":0,"o":"m 64 229 b 353 -22 69 29 222 -22 b 707 485 706 -22 707 343 b 679 743 707 615 696 685 b 369 979 624 938 472 979 b 61 669 218 979 61 890 b 354 365 61 468 201 365 b 569 486 429 365 519 392 b 364 88 576 336 575 88 b 210 229 256 88 210 146 z m 554 667 b 379 471 554 551 488 471 b 197 668 274 471 197 543 b 369 875 197 782 257 875 b 554 667 464 875 554 806 z "}," ":{"ha":386,"x_min":0,"x_max":0,"o":""},"!":{"ha":540,"x_min":0,"x_max":0,"o":"m 364 1001 l 208 1001 l 235 229 l 333 229 z m 207 0 l 354 0 l 354 139 l 207 139 z "},"\"":{"ha":556,"x_min":0,"x_max":0,"o":"m 106 961 l 126 619 l 201 619 l 221 961 z m 335 961 l 354 619 l 429 619 l 450 961 z "},"#":{"ha":772,"x_min":0,"x_max":0,"o":"m 7 274 l 146 274 l 96 0 l 207 0 l 258 274 l 426 274 l 376 0 l 488 0 l 539 274 l 694 274 l 694 369 l 557 369 l 594 576 l 751 576 l 751 672 l 613 672 l 667 961 l 554 961 l 501 672 l 332 672 l 386 961 l 274 961 l 221 672 l 64 672 l 64 576 l 203 576 l 164 369 l 8 369 z m 276 369 l 314 576 l 483 576 l 444 369 z "},"$":{"ha":772,"x_min":0,"x_max":0,"o":"m 351 1076 l 351 963 b 175 919 314 961 239 958 b 57 711 126 889 57 826 b 347 436 57 563 119 504 l 347 111 b 181 264 214 114 178 203 l 39 264 b 117 71 39 204 44 136 b 347 -7 200 -4 286 -6 l 347 -144 l 418 -144 l 418 -7 b 611 46 467 -3 547 4 b 736 275 647 69 736 139 b 421 561 736 469 563 522 l 421 851 b 576 736 503 849 574 825 l 722 736 b 422 964 717 954 485 963 l 422 1076 z m 350 582 b 194 721 282 601 194 628 b 350 851 194 746 200 836 z m 421 418 b 592 258 492 396 592 363 b 421 111 592 190 542 113 z "},"%":{"ha":1235,"x_min":0,"x_max":0,"o":"m 308 988 b 72 733 151 988 72 879 b 296 490 72 563 175 490 b 524 742 422 490 524 569 b 308 988 524 868 468 988 z m 299 571 b 179 735 179 571 179 703 b 299 904 179 768 179 904 b 414 736 397 904 414 804 b 299 571 414 708 414 571 z m 938 481 b 710 231 814 481 710 399 b 938 -17 710 115 760 -17 b 1161 238 1088 -17 1161 86 b 1104 414 1161 342 1129 386 b 938 481 1050 474 975 481 z m 936 65 b 819 217 831 65 819 168 b 939 403 819 258 819 403 b 1056 235 1047 403 1056 278 b 936 65 1056 185 1047 65 z m 349 -54 l 961 1015 l 869 1015 l 257 -54 z "},"&":{"ha":1081,"x_min":0,"x_max":0,"o":"m 826 650 b 753 318 826 478 804 404 l 507 561 b 701 836 565 600 701 689 b 642 974 701 889 679 939 b 433 1036 610 1003 561 1036 b 164 815 260 1036 164 946 b 279 585 164 696 238 624 b 68 265 175 507 68 422 b 406 -24 68 106 190 -24 b 753 124 543 -24 660 32 l 883 0 l 1078 0 l 839 232 b 961 650 932 356 960 456 z m 418 651 b 313 822 357 711 313 765 b 438 925 313 875 363 925 b 553 831 521 925 553 871 b 418 651 553 743 453 675 z m 663 207 b 426 93 626 169 553 93 b 214 269 343 93 214 131 b 368 497 214 344 253 413 z "},"’":{"ha":386,"x_min":0,"x_max":0,"o":"m 156 1003 l 65 661 l 160 661 l 315 1003 z "},"(":{"ha":463,"x_min":0,"x_max":0,"o":"m 357 -171 b 228 450 276 93 228 253 b 267 750 228 536 238 622 b 349 1044 296 882 326 976 l 257 1044 b 158 771 233 985 197 896 b 101 447 126 665 101 557 b 267 -171 101 244 192 14 z "},")":{"ha":463,"x_min":0,"x_max":0,"o":"m 106 1044 b 235 425 186 781 235 621 b 196 125 235 339 225 251 b 114 -171 167 -7 136 -101 l 206 -171 b 304 104 229 -111 265 -21 b 361 428 336 210 361 318 b 196 1044 361 631 271 860 z "},"*":{"ha":772,"x_min":0,"x_max":0,"o":"m 667 782 l 429 756 l 575 950 l 482 1001 l 386 785 l 293 1000 l 201 950 l 343 756 l 108 786 l 108 685 l 339 704 l 192 511 l 286 460 l 386 676 l 479 457 l 569 513 l 428 704 l 667 678 z "},"+":{"ha":811,"x_min":0,"x_max":0,"o":"m 347 0 l 464 0 l 464 296 l 760 296 l 760 403 l 464 403 l 464 699 l 347 699 l 347 403 l 51 403 l 51 296 l 347 296 z "},",":{"ha":386,"x_min":0,"x_max":0,"o":"m 157 167 l 68 -175 l 163 -175 l 318 167 z "},"-":{"ha":463,"x_min":0,"x_max":0,"o":"m 58 313 l 407 313 l 407 418 l 58 418 z "},".":{"ha":386,"x_min":0,"x_max":0,"o":"m 113 0 l 267 0 l 267 167 l 113 167 z "},"/":{"ha":386,"x_min":0,"x_max":0,"o":"m -12 -22 l 79 -22 l 403 990 l 313 990 z "},":":{"ha":386,"x_min":0,"x_max":0,"o":"m 115 540 l 269 540 l 269 704 l 115 704 z m 115 0 l 269 0 l 269 164 l 115 164 z "},";":{"ha":386,"x_min":0,"x_max":0,"o":"m 132 538 l 293 538 l 293 704 l 132 704 z m 157 167 l 68 -175 l 163 -175 l 318 167 z "},"<":{"ha":811,"x_min":0,"x_max":0,"o":"m 51 292 l 760 14 l 760 135 l 196 349 l 760 564 l 760 683 l 51 406 z "},"=":{"ha":811,"x_min":0,"x_max":0,"o":"m 51 436 l 760 436 l 760 543 l 51 543 z m 51 154 l 760 154 l 760 263 l 51 263 z "},">":{"ha":811,"x_min":0,"x_max":0,"o":"m 760 292 l 760 406 l 51 683 l 51 564 l 615 349 l 51 135 l 51 14 z "},"?":{"ha":694,"x_min":0,"x_max":0,"o":"m 103 868 b 290 907 197 907 271 907 b 478 763 326 907 478 904 b 321 515 478 682 428 628 b 249 375 249 439 249 431 l 249 228 l 365 228 l 365 375 b 376 418 365 393 367 404 b 454 497 376 419 447 490 b 622 775 569 614 622 665 b 560 936 622 835 599 894 b 300 1022 504 996 415 1022 b 103 993 201 1022 136 1004 z m 238 0 l 382 0 l 382 142 l 238 142 z "},"@":{"ha":1410,"x_min":0,"x_max":0,"o":"m 907 763 l 882 674 b 846 738 876 692 869 715 b 721 783 813 772 763 783 b 446 454 556 783 446 604 b 632 244 446 324 524 244 b 826 381 758 244 810 347 b 821 342 824 371 821 358 b 932 244 821 276 875 244 b 1215 611 1064 244 1215 386 b 751 1029 1215 893 989 1029 b 196 489 474 1029 196 842 b 729 -24 196 181 418 -24 b 1150 124 904 -24 1028 35 l 1115 169 b 733 38 1011 96 897 38 b 260 485 460 38 260 210 b 751 968 260 793 490 968 b 1150 618 960 968 1150 856 b 957 314 1150 438 1044 314 b 896 371 939 314 896 319 b 918 476 896 400 908 442 l 1003 763 z m 843 606 b 660 314 843 547 792 314 b 558 447 590 314 558 374 b 743 715 558 553 632 715 b 843 606 782 715 843 692 z "},"A":{"ha":1003,"x_min":0,"x_max":0,"o":"m 13 0 l 156 0 l 264 261 l 729 261 l 838 0 l 989 0 l 583 1003 l 435 1003 z m 503 865 l 688 374 l 308 374 z "},"B":{"ha":926,"x_min":0,"x_max":0,"o":"m 132 0 l 497 0 b 724 46 576 0 654 0 b 844 274 757 68 844 138 b 644 524 844 465 703 507 b 814 750 693 542 814 585 b 743 929 814 829 786 888 b 490 1003 681 990 613 1003 l 132 1003 z m 267 889 l 467 889 b 669 738 543 889 669 889 b 461 579 669 579 508 579 l 267 579 z m 267 460 l 510 460 b 701 286 632 460 701 386 b 504 113 701 171 614 113 l 267 113 z "},"C":{"ha":926,"x_min":0,"x_max":0,"o":"m 875 732 b 515 1017 857 960 657 1017 b 76 490 158 1017 76 701 b 497 -15 76 296 144 -15 b 872 264 669 -15 851 67 l 719 264 b 671 158 715 240 707 197 b 508 99 628 114 569 99 b 225 492 279 99 225 303 b 510 906 225 658 268 906 b 726 732 703 906 721 767 z "},"D":{"ha":1003,"x_min":0,"x_max":0,"o":"m 122 0 l 404 0 b 774 82 551 0 675 0 b 940 493 850 143 940 276 b 817 872 940 631 906 768 b 413 1003 706 1003 547 1003 l 122 1003 z m 261 888 l 428 888 b 694 800 550 888 631 871 b 792 488 789 696 792 525 b 660 169 792 429 788 265 b 397 114 593 119 493 114 l 261 114 z "},"E":{"ha":849,"x_min":0,"x_max":0,"o":"m 106 0 l 746 0 l 746 122 l 244 122 l 244 456 l 711 456 l 711 572 l 244 572 l 244 885 l 735 885 l 735 1003 l 106 1003 z "},"F":{"ha":772,"x_min":0,"x_max":0,"o":"m 132 0 l 274 0 l 274 456 l 703 456 l 703 572 l 274 572 l 274 885 l 729 885 l 729 1003 l 132 1003 z "},"G":{"ha":1081,"x_min":0,"x_max":0,"o":"m 953 753 b 886 913 950 792 946 850 b 590 1019 790 1010 669 1019 b 311 949 540 1019 410 1015 b 96 485 121 821 96 585 b 236 103 96 343 138 203 b 600 -22 307 31 415 -22 b 957 39 771 -22 899 19 l 957 533 l 589 533 l 589 418 l 818 418 l 818 121 b 600 89 786 111 714 89 b 333 188 500 89 399 113 b 242 503 260 275 242 418 b 349 825 242 597 261 728 b 575 910 401 885 481 910 b 801 753 711 910 786 846 z "},"H":{"ha":1003,"x_min":0,"x_max":0,"o":"m 122 1003 l 122 0 l 261 0 l 261 453 l 738 453 l 738 0 l 876 0 l 876 1003 l 738 1003 l 738 572 l 261 572 l 261 1003 z "},"I":{"ha":386,"x_min":0,"x_max":0,"o":"m 122 0 l 261 0 l 261 1003 l 122 1003 z "},"J":{"ha":772,"x_min":0,"x_max":0,"o":"m 29 272 b 79 89 29 232 32 153 b 318 -15 149 -3 265 -15 b 629 269 483 -15 629 85 l 629 1003 l 490 1003 l 490 307 b 467 172 490 276 490 213 b 328 101 438 125 385 101 b 199 163 257 101 215 136 b 176 272 178 194 178 238 z "},"K":{"ha":926,"x_min":0,"x_max":0,"o":"m 129 0 l 267 0 l 267 532 l 729 0 l 924 0 l 426 554 l 875 1003 l 685 1003 l 267 564 l 267 1003 l 129 1003 z "},"L":{"ha":772,"x_min":0,"x_max":0,"o":"m 129 0 l 733 0 l 733 124 l 267 124 l 267 1003 l 129 1003 z "},"M":{"ha":1311,"x_min":0,"x_max":0,"o":"m 125 0 l 260 0 l 260 897 l 576 0 l 708 0 l 1038 903 l 1038 0 l 1174 0 l 1174 1003 l 944 1003 l 654 176 l 371 1003 l 125 1003 z "},"N":{"ha":1081,"x_min":0,"x_max":0,"o":"m 132 0 l 258 0 l 258 851 l 768 0 l 946 0 l 946 1003 l 818 1003 l 818 174 l 325 1003 l 132 1003 z "},"O":{"ha":1081,"x_min":0,"x_max":0,"o":"m 82 494 b 535 -24 82 219 193 -24 b 999 511 892 -24 999 244 b 546 1029 999 851 824 1029 b 211 894 453 1029 315 1007 b 82 494 101 776 82 608 z m 228 503 b 547 913 228 708 293 913 b 851 513 776 913 851 740 b 761 186 851 444 843 286 b 539 94 703 117 621 94 b 317 186 460 94 374 115 b 228 503 247 272 228 393 z "},"P":{"ha":849,"x_min":0,"x_max":0,"o":"m 122 0 l 261 0 l 261 446 l 424 446 b 726 532 604 446 674 479 b 806 728 781 586 806 651 b 732 922 806 803 782 871 b 458 1003 664 996 581 1003 l 122 1003 z m 261 890 l 456 890 b 658 733 528 890 658 890 b 426 563 658 569 518 563 l 261 563 z "},"Q":{"ha":1081,"x_min":0,"x_max":0,"o":"m 1047 110 l 974 110 b 794 90 882 110 828 97 b 976 521 965 225 976 424 b 542 1026 976 761 875 1026 b 206 890 415 1026 290 983 b 81 494 101 775 81 614 b 513 -21 81 139 274 -21 b 694 -7 546 -21 626 -14 b 881 0 761 -1 861 0 l 1047 0 z m 228 492 b 529 911 228 601 251 911 b 835 497 724 911 835 756 b 526 88 835 393 813 88 b 228 492 288 88 228 326 z "},"R":{"ha":926,"x_min":0,"x_max":0,"o":"m 119 0 l 257 0 l 257 453 l 432 453 b 651 265 600 453 635 411 b 697 0 661 189 675 67 l 846 0 b 783 315 807 111 797 197 b 631 508 769 440 726 483 b 749 574 661 517 706 531 b 819 751 793 618 819 681 b 708 956 819 832 783 908 b 478 1003 635 1003 529 1003 l 119 1003 z m 254 886 l 474 886 b 674 724 529 886 674 886 b 606 593 674 640 625 604 b 474 571 568 571 489 571 l 254 571 z "},"S":{"ha":926,"x_min":0,"x_max":0,"o":"m 78 293 b 136 90 78 244 79 164 b 447 -24 215 -11 371 -24 b 843 289 704 -24 843 111 b 743 489 843 331 836 428 b 419 594 685 528 658 533 b 239 743 297 624 239 654 b 461 906 239 843 322 906 b 672 753 560 906 665 878 l 817 753 b 756 924 814 794 811 863 b 474 1022 675 1011 540 1022 b 92 729 285 1022 92 933 b 196 532 92 663 114 588 b 468 443 247 497 315 481 b 699 274 608 408 699 386 b 464 94 699 224 672 94 b 222 293 233 94 225 224 z "},"T":{"ha":849,"x_min":0,"x_max":0,"o":"m 503 0 l 503 885 l 839 885 l 839 1003 l 29 1003 l 29 885 l 365 885 l 365 0 z "},"U":{"ha":1081,"x_min":0,"x_max":0,"o":"m 129 1003 l 129 392 b 188 139 129 242 157 183 b 542 -21 281 6 447 -21 b 865 118 614 -21 767 -6 b 947 385 946 218 947 331 l 947 1003 l 813 1003 l 813 388 b 542 103 813 315 813 103 b 313 201 472 103 375 118 b 268 382 292 231 268 275 l 268 1003 z "},"V":{"ha":926,"x_min":0,"x_max":0,"o":"m 899 1003 l 758 1003 l 458 146 l 174 1003 l 19 1003 l 376 0 l 529 0 z "},"W":{"ha":1389,"x_min":0,"x_max":0,"o":"m 11 1003 l 296 0 l 446 0 l 694 857 l 926 0 l 1081 0 l 1378 1003 l 1242 1003 l 1014 171 l 788 1003 l 615 1003 l 376 178 l 160 1003 z "},"X":{"ha":1003,"x_min":0,"x_max":0,"o":"m 68 1003 l 415 525 l 26 0 l 194 0 l 500 431 l 799 0 l 974 0 l 599 522 l 956 1003 l 788 1003 l 517 617 l 246 1003 z "},"Y":{"ha":926,"x_min":0,"x_max":0,"o":"m 401 0 l 542 0 l 542 388 l 933 1003 l 778 1003 l 478 511 l 182 1003 l 10 1003 l 401 394 z "},"Z":{"ha":849,"x_min":0,"x_max":0,"o":"m 49 0 l 803 0 l 803 122 l 208 122 l 793 865 l 793 1003 l 64 1003 l 64 881 l 628 881 l 49 139 z "},"[":{"ha":463,"x_min":0,"x_max":0,"o":"m 142 -174 l 382 -174 l 382 -100 l 251 -100 l 251 968 l 382 968 l 382 1042 l 142 1042 z "},"\\":{"ha":386,"x_min":0,"x_max":0,"o":"m 403 -22 l 79 990 l -12 990 l 313 -22 z "},"]":{"ha":463,"x_min":0,"x_max":0,"o":"m 83 -174 l 325 -174 l 325 1042 l 83 1042 l 83 968 l 215 968 l 215 -100 l 83 -100 z "},"^":{"ha":811,"x_min":0,"x_max":0,"o":"m 114 376 l 233 376 l 403 818 l 578 376 l 697 376 l 458 961 l 353 961 z "},"_":{"ha":694,"x_min":0,"x_max":0,"o":"m 0 -174 l 694 -174 l 694 -104 l 0 -104 z "},"‘":{"ha":386,"x_min":0,"x_max":0,"o":"m 224 661 l 317 1003 l 224 1003 l 64 661 z "},"a":{"ha":772,"x_min":0,"x_max":0,"o":"m 665 0 b 654 175 656 71 654 164 l 660 508 b 636 615 660 540 658 574 b 389 718 599 686 490 718 b 164 643 315 718 217 701 b 115 511 124 596 119 547 l 246 511 b 386 629 247 539 254 629 b 507 583 424 629 481 618 b 532 429 532 553 532 515 b 438 433 492 432 471 433 b 196 388 382 433 271 429 b 74 183 93 328 74 239 b 319 -22 74 68 160 -22 b 535 104 378 -22 472 -11 b 547 0 535 68 538 35 z m 532 339 b 499 156 529 242 528 203 b 350 81 467 107 417 81 b 206 201 233 81 206 157 b 457 343 206 343 404 343 b 532 339 489 343 508 342 z "},"b":{"ha":849,"x_min":0,"x_max":0,"o":"m 253 1003 l 122 1003 l 122 125 l 119 0 l 246 0 l 249 106 b 317 35 263 85 278 61 b 472 -10 376 -6 439 -10 b 717 110 568 -10 661 31 b 783 364 751 156 783 229 b 701 626 783 517 736 586 b 481 715 638 699 550 715 b 253 596 322 715 271 628 z m 646 356 b 444 85 646 242 606 85 b 250 349 250 85 250 303 b 450 626 250 393 250 626 b 646 356 632 626 646 425 z "},"c":{"ha":694,"x_min":0,"x_max":0,"o":"m 651 474 b 593 629 649 513 644 569 b 379 715 529 706 425 715 b 63 339 240 715 63 629 b 146 72 63 194 104 121 b 375 -18 219 -8 328 -18 b 657 232 547 -18 649 96 l 525 232 b 374 81 522 164 485 81 b 200 357 235 81 200 214 b 381 619 200 410 200 619 b 519 474 507 619 517 506 z "},"d":{"ha":849,"x_min":0,"x_max":0,"o":"m 606 603 b 389 721 589 632 539 721 b 74 340 225 721 74 606 b 374 -14 74 35 281 -14 b 546 38 421 -14 489 -1 b 608 111 582 63 597 92 l 611 0 l 742 0 b 736 111 739 36 736 96 l 736 1001 l 606 1001 z m 610 358 b 404 78 610 304 610 78 b 213 344 244 78 213 221 b 404 624 213 392 213 624 b 557 553 478 624 529 589 b 610 358 586 515 610 460 z "},"e":{"ha":772,"x_min":0,"x_max":0,"o":"m 703 325 b 400 715 706 439 713 715 b 210 664 360 715 276 711 b 72 336 100 588 72 474 b 396 -21 72 115 176 -21 b 636 72 536 -21 606 38 b 696 218 686 126 692 183 l 565 218 b 401 74 554 118 486 74 b 201 325 258 74 199 181 z m 207 417 b 397 622 210 571 313 622 b 569 417 558 622 571 483 z "},"f":{"ha":463,"x_min":0,"x_max":0,"o":"m 471 1010 b 364 1019 443 1014 401 1019 b 189 943 274 1019 218 988 b 160 776 165 907 160 872 l 160 697 l 22 697 l 22 603 l 160 603 l 160 0 l 289 0 l 289 603 l 451 603 l 451 697 l 289 697 l 289 807 b 394 908 289 856 289 908 b 471 906 421 908 449 907 z "},"g":{"ha":849,"x_min":0,"x_max":0,"o":"m 108 -54 b 401 -279 114 -149 122 -279 b 692 -154 497 -279 633 -265 b 725 135 719 -101 725 -33 l 726 571 l 729 697 l 603 697 l 601 601 b 382 707 574 638 522 707 b 72 356 211 707 72 592 b 151 99 72 263 92 169 b 365 13 210 26 301 13 b 594 131 407 13 539 15 b 410 -190 594 -58 592 -190 b 247 -54 286 -190 253 -132 z m 399 110 b 207 358 239 110 207 251 b 394 614 207 447 229 614 b 544 553 454 614 510 590 b 599 379 579 517 599 467 b 551 179 599 253 579 215 b 399 110 519 138 475 110 z "},"h":{"ha":849,"x_min":0,"x_max":0,"o":"m 122 0 l 254 0 l 254 369 b 276 517 254 413 254 478 b 440 610 294 550 343 610 b 590 413 590 610 590 475 l 590 0 l 724 0 l 724 436 b 700 599 724 538 714 571 b 481 710 660 683 554 710 b 254 594 383 710 297 668 l 254 1001 l 122 1001 z "},"i":{"ha":386,"x_min":0,"x_max":0,"o":"m 110 857 l 267 857 l 267 1000 l 110 1000 z m 124 0 l 254 0 l 254 697 l 124 697 z "},"j":{"ha":386,"x_min":0,"x_max":0,"o":"m 114 856 l 272 856 l 272 1000 l 114 1000 z m -1 -268 b 79 -274 35 -272 63 -274 b 257 -65 254 -274 257 -132 l 257 697 l 126 697 l 126 -50 b -1 -175 126 -161 101 -179 z "},"k":{"ha":694,"x_min":0,"x_max":0,"o":"m 113 0 l 242 0 l 242 376 l 521 0 l 692 0 l 379 401 l 674 697 l 503 697 l 242 413 l 242 1010 l 113 1010 z "},"l":{"ha":386,"x_min":0,"x_max":0,"o":"m 125 0 l 256 0 l 256 1001 l 125 1001 z "},"m":{"ha":1311,"x_min":0,"x_max":0,"o":"m 121 0 l 253 0 l 253 396 b 283 538 253 440 254 497 b 436 614 299 558 347 614 b 589 461 539 614 589 547 l 589 0 l 721 0 l 721 390 b 751 540 721 421 721 497 b 900 614 769 565 815 614 b 1033 553 967 614 1011 585 b 1057 447 1046 535 1057 508 l 1057 0 l 1189 0 l 1189 468 b 933 715 1189 674 1033 715 b 699 585 779 715 722 624 b 471 715 674 636 625 715 b 250 596 411 715 317 706 l 250 697 l 118 697 l 121 604 z "},"n":{"ha":849,"x_min":0,"x_max":0,"o":"m 126 0 l 257 0 l 257 401 b 439 610 257 542 344 610 b 563 563 483 610 529 594 b 600 443 594 531 600 489 l 600 0 l 733 0 l 733 474 b 481 711 733 688 543 711 b 257 585 322 711 272 614 l 256 697 l 125 697 l 126 617 z "},"o":{"ha":849,"x_min":0,"x_max":0,"o":"m 71 340 b 414 -24 71 136 183 -24 b 767 350 651 -24 767 146 b 425 715 767 496 704 715 b 71 340 151 715 71 513 z m 207 349 b 425 619 207 567 342 619 b 628 354 547 619 628 528 b 417 74 628 144 515 74 b 207 349 268 74 207 206 z "},"p":{"ha":849,"x_min":0,"x_max":0,"o":"m 118 -268 l 247 -268 l 247 78 b 461 -26 285 17 360 -26 b 779 347 628 -26 779 88 b 486 708 779 606 636 708 b 249 582 429 708 314 692 l 246 697 l 114 697 b 118 583 117 631 118 614 z m 243 328 b 451 611 243 390 243 611 b 643 356 606 611 643 481 b 586 138 643 306 636 206 b 439 69 542 76 472 69 b 243 328 256 69 243 243 z "},"q":{"ha":849,"x_min":0,"x_max":0,"o":"m 603 697 l 599 582 b 361 708 568 631 503 708 b 68 351 214 708 68 608 b 386 -26 68 93 217 -26 b 543 18 418 -26 485 -22 b 600 78 575 39 589 61 l 600 -268 l 732 -268 l 732 583 b 735 697 732 608 733 669 z m 604 335 b 411 69 604 196 572 69 b 261 138 346 69 292 93 b 204 360 211 208 204 310 b 394 611 204 414 207 611 b 604 335 604 611 604 392 z "},"r":{"ha":540,"x_min":0,"x_max":0,"o":"m 129 0 l 261 0 l 261 371 b 451 582 261 490 297 582 b 489 581 467 582 479 582 b 514 575 499 579 507 578 l 514 703 b 424 700 492 704 463 706 b 257 563 365 692 282 660 l 254 697 l 122 697 b 129 556 126 651 129 603 z "},"s":{"ha":694,"x_min":0,"x_max":0,"o":"m 60 207 b 332 -19 58 39 190 -19 b 539 28 404 -19 478 -10 b 633 204 590 60 633 126 b 581 333 633 249 619 297 b 304 429 539 372 497 383 b 206 518 268 439 206 454 b 347 618 206 618 328 618 b 482 504 394 618 486 610 l 615 504 b 597 606 615 533 615 567 b 346 714 556 689 433 714 b 74 503 185 714 74 631 b 342 294 74 357 196 328 b 494 190 446 271 494 258 b 472 125 494 167 486 143 b 350 81 444 90 404 81 b 197 207 224 81 196 154 z "},"t":{"ha":463,"x_min":0,"x_max":0,"o":"m 15 604 l 139 604 l 139 139 b 315 -10 139 25 196 -10 b 424 -1 363 -10 400 -6 l 424 100 b 361 93 413 97 388 93 b 268 186 268 93 268 151 l 268 604 l 424 604 l 424 700 l 268 700 l 268 888 l 139 846 l 139 700 l 15 700 z "},"u":{"ha":849,"x_min":0,"x_max":0,"o":"m 108 697 l 108 229 b 361 -7 108 92 189 -7 b 583 119 511 -7 558 71 l 586 0 l 722 0 b 718 131 721 39 718 117 l 718 697 l 583 697 l 583 303 b 554 172 583 268 583 214 b 390 94 517 117 456 94 b 242 249 257 94 242 181 l 242 697 z "},"v":{"ha":772,"x_min":0,"x_max":0,"o":"m 308 0 l 440 0 l 746 697 l 601 697 l 385 144 l 163 697 l 17 697 z "},"w":{"ha":1157,"x_min":0,"x_max":0,"o":"m 17 697 l 247 0 l 401 0 l 583 574 l 747 0 l 897 0 l 1143 697 l 1008 697 l 833 147 l 675 697 l 504 697 l 328 142 l 160 697 z "},"x":{"ha":772,"x_min":0,"x_max":0,"o":"m 465 357 l 738 697 l 583 697 l 389 435 l 203 697 l 32 697 l 293 365 l 17 0 l 169 0 l 367 279 l 565 0 l 738 0 z "},"y":{"ha":772,"x_min":0,"x_max":0,"o":"m 746 697 l 604 697 l 382 147 l 164 697 l 17 697 l 307 3 l 201 -264 l 336 -264 l 436 -4 z "},"z":{"ha":617,"x_min":0,"x_max":0,"o":"m 42 0 l 563 0 l 563 101 l 178 101 l 563 586 l 563 697 l 61 697 l 61 599 l 414 599 l 42 135 z "},"{":{"ha":464,"x_min":0,"x_max":0,"o":"m -1 399 b 182 192 182 378 182 281 l 182 144 b 465 -174 182 -17 196 -157 l 465 -103 b 294 122 296 -89 294 29 l 294 165 b 110 435 294 275 293 411 b 294 703 294 458 294 600 l 294 739 b 465 971 294 836 294 957 l 465 1042 b 182 714 182 1026 182 863 l 182 676 b 126 514 182 608 182 554 b -1 469 81 479 18 471 z "},"|":{"ha":361,"x_min":0,"x_max":0,"o":"m 124 1042 l 124 -347 l 239 -347 l 239 1042 z "},"}":{"ha":464,"x_min":0,"x_max":0,"o":"m 465 469 b 282 676 282 490 282 588 l 282 724 b -1 1042 282 885 268 1025 l -1 971 b 169 746 168 957 169 839 l 169 703 b 354 435 169 593 171 457 b 169 165 169 410 169 268 l 169 129 b -1 -103 169 32 169 -89 l -1 -174 b 282 154 282 -158 282 6 l 282 192 b 338 354 282 260 282 314 b 465 399 383 389 446 397 z "},"~":{"ha":811,"x_min":0,"x_max":0,"o":"m 114 242 b 215 346 126 318 178 346 b 365 304 243 346 256 342 b 589 247 429 282 533 247 b 774 456 644 247 754 274 l 699 456 b 597 354 683 376 639 354 b 422 401 564 354 546 360 b 221 451 285 446 268 451 b 93 390 175 451 132 436 b 38 242 56 344 46 300 z "},"¡":{"ha":540,"x_min":0,"x_max":0,"o":"m 186 558 l 333 558 l 333 697 l 186 697 z m 206 468 l 176 -306 l 331 -306 l 307 468 z "},"¢":{"ha":772,"x_min":0,"x_max":0,"o":"m 690 474 b 551 688 685 606 604 665 l 604 875 l 538 875 l 490 708 b 419 715 472 711 454 715 b 194 622 325 715 246 676 b 100 339 124 547 100 443 b 290 3 100 233 128 63 l 232 -203 l 300 -203 l 354 -14 b 411 -18 378 -18 406 -18 b 696 232 589 -18 688 96 l 564 232 b 411 79 561 132 497 79 b 381 83 399 79 393 81 l 519 574 b 558 474 551 538 556 496 z m 319 108 b 239 361 251 158 239 279 b 289 558 239 475 263 525 b 414 619 319 597 365 619 b 463 611 439 619 454 614 z "},"£":{"ha":772,"x_min":0,"x_max":0,"o":"m 147 482 l 147 94 l 54 94 l 54 0 l 726 0 l 726 93 l 283 93 l 283 482 l 479 482 l 479 575 l 283 575 l 283 633 b 325 850 283 761 283 799 b 461 908 364 899 424 908 b 614 772 556 908 613 850 l 750 772 b 706 906 750 801 750 858 b 458 997 636 981 535 997 b 161 790 222 997 169 826 b 150 575 144 721 147 642 l 44 575 l 44 482 z "},"⁄":{"ha":232,"x_min":0,"x_max":0,"o":"m -233 -39 l -143 -39 l 453 993 l 364 993 z "},"¥":{"ha":772,"x_min":0,"x_max":0,"o":"m 61 228 l 315 228 l 315 0 l 456 0 l 456 228 l 710 228 l 710 313 l 456 313 l 456 389 l 710 389 l 710 475 l 500 475 l 772 1003 l 615 1003 l 392 511 l 172 1003 l 0 1003 l 275 475 l 61 475 l 61 389 l 315 389 l 315 313 l 61 313 z "},"ƒ":{"ha":772,"x_min":0,"x_max":0,"o":"m 190 579 l 174 486 l 299 486 l 218 68 b 165 -136 186 -82 181 -110 b 86 -176 156 -153 129 -176 b 64 -174 76 -176 71 -175 l 47 -274 b 336 35 274 -286 297 -172 l 421 486 l 564 486 l 583 579 l 438 579 l 469 729 b 590 849 481 788 508 849 b 639 844 608 849 626 846 l 654 942 b 579 950 624 947 604 950 b 421 897 535 950 468 939 b 349 732 378 858 363 799 l 317 579 z "},"§":{"ha":772,"x_min":0,"x_max":0,"o":"m 154 0 b 328 -29 213 -19 267 -29 b 615 182 514 -29 615 63 b 461 360 615 311 510 344 b 603 538 550 386 603 442 b 461 703 603 656 508 688 l 374 732 b 288 822 328 747 288 761 b 414 914 288 904 372 914 b 568 875 471 914 518 894 l 568 983 b 403 1007 501 1003 442 1007 b 153 814 253 1007 153 939 b 283 654 153 725 213 675 b 132 474 242 639 132 596 b 274 313 132 357 228 328 l 368 283 b 478 181 421 267 478 243 b 339 75 478 163 468 75 b 154 119 244 75 179 107 z m 369 392 b 253 500 329 403 253 425 b 365 622 253 576 322 604 b 488 514 425 603 488 583 b 369 392 488 435 404 404 z "},"¤":{"ha":772,"x_min":0,"x_max":0,"o":"m 56 218 l 124 150 l 215 240 b 388 185 265 204 325 185 b 558 240 449 185 507 206 l 649 150 l 717 218 l 626 310 b 682 481 642 332 682 392 b 626 653 682 543 664 603 l 717 743 l 649 811 l 560 721 b 388 776 526 742 471 776 b 214 722 297 776 244 743 l 124 813 l 56 744 l 146 654 b 90 481 110 603 90 543 b 146 308 90 390 129 333 z m 386 674 b 579 481 492 674 579 589 b 386 288 579 374 493 288 b 193 481 279 288 193 375 b 386 674 193 589 281 674 z "},"'":{"ha":386,"x_min":0,"x_max":0,"o":"m 136 961 l 156 619 l 231 619 l 251 961 z "},"“":{"ha":772,"x_min":0,"x_max":0,"o":"m 281 661 l 374 1003 l 281 1003 l 121 661 z m 540 661 l 633 1003 l 540 1003 l 381 661 z "},"«":{"ha":772,"x_min":0,"x_max":0,"o":"m 381 74 l 244 346 l 379 615 l 269 615 l 115 346 l 269 74 z m 653 74 l 517 346 l 651 615 l 542 615 l 388 346 l 542 74 z "},"‹":{"ha":386,"x_min":0,"x_max":0,"o":"m 333 74 l 196 346 l 331 615 l 222 615 l 68 346 l 222 74 z "},"›":{"ha":386,"x_min":0,"x_max":0,"o":"m 40 615 l 176 344 l 42 74 l 151 74 l 306 344 l 151 615 z "},"ﬁ":{"ha":849,"x_min":0,"x_max":0,"o":"m 571 858 l 726 858 l 726 1000 l 571 1000 z m 714 0 l 714 697 l 585 697 l 585 0 z m 471 1010 b 364 1019 443 1014 401 1019 b 189 943 276 1019 219 989 b 160 776 165 907 160 872 l 160 697 l 22 697 l 22 603 l 160 603 l 160 0 l 289 0 l 289 603 l 451 603 l 451 697 l 289 697 l 289 807 b 394 908 289 856 289 908 b 471 906 421 908 449 907 z "},"ﬂ":{"ha":849,"x_min":0,"x_max":0,"o":"m 582 0 l 713 0 l 713 1001 l 582 1001 z m 471 1010 b 364 1019 443 1014 401 1019 b 189 943 276 1019 219 989 b 160 776 165 907 160 872 l 160 697 l 22 697 l 22 603 l 160 603 l 160 0 l 289 0 l 289 603 l 451 603 l 451 697 l 289 697 l 289 807 b 394 908 289 856 289 908 b 471 906 421 908 449 907 z "},"–":{"ha":694,"x_min":0,"x_max":0,"o":"m 0 321 l 694 321 l 694 421 l 0 421 z "},"†":{"ha":772,"x_min":0,"x_max":0,"o":"m 667 768 l 435 768 l 435 1003 l 325 1003 l 325 768 l 89 768 l 89 665 l 325 665 l 325 0 l 435 0 l 435 665 l 667 665 z "},"‡":{"ha":772,"x_min":0,"x_max":0,"o":"m 326 772 l 90 772 l 90 668 l 326 668 l 326 338 l 90 338 l 90 235 l 326 235 l 326 0 l 438 0 l 438 235 l 674 235 l 674 338 l 438 338 l 438 668 l 674 668 l 674 772 l 438 772 l 438 1003 l 326 1003 z "},"·":{"ha":386,"x_min":0,"x_max":0,"o":"m 113 321 l 267 321 l 267 489 l 113 489 z "},"¶":{"ha":746,"x_min":0,"x_max":0,"o":"m 731 914 l 731 1003 l 353 1003 b -7 675 68 1003 -7 810 b 275 367 -7 542 58 383 l 275 -233 l 385 -233 l 385 914 l 547 914 l 547 -233 l 656 -233 l 656 914 z "},"•":{"ha":486,"x_min":0,"x_max":0,"o":"m 247 753 b -4 501 110 753 -4 642 b 247 251 -4 364 108 251 b 497 501 386 251 497 364 b 247 753 497 640 385 753 z "},"‚":{"ha":386,"x_min":0,"x_max":0,"o":"m 154 139 l 68 -187 l 161 -187 l 314 139 z "},"„":{"ha":772,"x_min":0,"x_max":0,"o":"m 228 139 l 142 -187 l 235 -187 l 388 139 z m 488 139 l 400 -187 l 493 -187 l 646 139 z "},"”":{"ha":772,"x_min":0,"x_max":0,"o":"m 228 1003 l 135 661 l 228 661 l 388 1003 z m 489 1003 l 396 661 l 489 661 l 647 1003 z "},"»":{"ha":772,"x_min":0,"x_max":0,"o":"m 113 615 l 249 344 l 114 74 l 224 74 l 378 344 l 224 615 z m 385 615 l 521 344 l 386 74 l 494 74 l 650 344 l 494 615 z "},"…":{"ha":1389,"x_min":0,"x_max":0,"o":"m 175 0 l 329 0 l 329 167 l 175 167 z m 618 0 l 772 0 l 772 167 l 618 167 z m 1061 0 l 1215 0 l 1215 167 l 1061 167 z "},"‰":{"ha":1389,"x_min":0,"x_max":0,"o":"m 418 757 b 217 989 418 894 357 989 b 13 742 13 989 13 785 b 211 514 13 604 74 514 b 418 757 369 514 418 632 z m 215 593 b 114 747 124 593 114 689 b 217 911 114 808 122 911 b 315 756 297 911 315 832 b 215 593 315 690 303 593 z m 886 226 b 685 458 886 364 824 458 b 481 211 481 458 481 253 b 679 -17 481 74 542 -17 b 886 226 838 -17 886 101 z m 683 63 b 581 217 590 63 581 157 b 683 381 581 278 590 381 b 783 225 764 381 783 301 b 683 63 783 160 771 63 z m 1368 226 b 1167 458 1368 364 1307 458 b 963 211 963 458 963 253 b 1161 -17 963 74 1024 -17 b 1368 226 1319 -17 1368 101 z m 1165 63 b 1064 217 1074 63 1064 157 b 1167 381 1064 278 1072 381 b 1265 225 1247 381 1265 301 b 1165 63 1265 160 1253 63 z m 721 1015 l 67 -51 l 153 -51 l 808 1015 z "},"¿":{"ha":694,"x_min":0,"x_max":0,"o":"m 608 -171 b 419 -210 513 -210 439 -210 b 232 -65 385 -210 232 -207 b 389 183 232 15 283 69 b 461 324 461 260 461 268 l 461 469 l 346 469 l 346 322 b 335 279 346 306 344 293 b 257 200 333 279 264 207 b 89 -76 140 85 89 32 b 151 -239 89 -136 111 -196 b 411 -325 207 -297 296 -325 b 608 -296 510 -325 574 -306 z m 472 697 l 328 697 l 328 556 l 472 556 z "},"`":{"ha":386,"x_min":0,"x_max":0,"o":"m 3 1028 l 190 828 l 276 828 l 160 1028 z "},"´":{"ha":386,"x_min":0,"x_max":0,"o":"m 225 1028 l 111 828 l 201 828 l 369 1028 z "},"ˆ":{"ha":386,"x_min":0,"x_max":0,"o":"m 89 828 l 188 961 l 279 828 l 399 828 l 254 1029 l 129 1029 l -18 828 z "},"˜":{"ha":386,"x_min":0,"x_max":0,"o":"m 56 850 b 108 900 68 890 88 900 b 178 882 117 900 150 889 b 265 864 218 869 240 864 b 382 1004 315 864 385 897 l 325 1004 b 274 953 325 974 307 953 b 222 963 257 953 243 957 b 115 986 146 983 136 986 b 31 947 81 986 51 972 b -3 850 11 924 -1 889 z "},"¯":{"ha":386,"x_min":0,"x_max":0,"o":"m 0 892 l 382 892 l 382 965 l 0 965 z "},"˘":{"ha":386,"x_min":0,"x_max":0,"o":"m 3 1043 b 190 825 3 990 4 825 b 383 1043 319 825 388 901 l 318 1043 b 190 913 317 1017 308 913 b 68 1043 107 913 71 964 z "},"˙":{"ha":386,"x_min":0,"x_max":0,"o":"m 129 857 l 257 857 l 257 999 l 129 999 z "},"¨":{"ha":386,"x_min":0,"x_max":0,"o":"m -4 857 l 124 857 l 124 999 l -4 999 z m 258 857 l 388 857 l 388 999 l 258 999 z "},"˚":{"ha":386,"x_min":0,"x_max":0,"o":"m 57 929 b 193 793 57 854 118 793 b 329 929 268 793 329 854 b 193 1065 329 1004 268 1065 b 57 929 118 1065 57 1004 z m 113 929 b 193 1010 113 974 149 1010 b 274 929 238 1010 274 974 b 193 849 274 885 238 849 b 113 929 149 849 113 885 z "},"¸":{"ha":386,"x_min":0,"x_max":0,"o":"m 31 -269 b 161 -297 63 -283 94 -297 b 331 -172 329 -297 331 -183 b 222 -74 331 -131 303 -74 b 167 -81 199 -74 182 -78 l 229 7 l 171 7 l 83 -115 l 104 -139 b 154 -128 122 -132 135 -128 b 225 -182 176 -128 225 -133 b 151 -237 225 -218 199 -237 b 58 -218 100 -237 74 -226 z "},"˝":{"ha":556,"x_min":0,"x_max":0,"o":"m 267 1028 l 122 1028 l 8 828 l 99 828 z m 488 1028 l 343 1028 l 229 828 l 319 828 z "},"˛":{"ha":386,"x_min":0,"x_max":0,"o":"m 324 -183 b 261 -200 308 -193 293 -200 b 172 -131 250 -200 172 -200 b 286 1 172 -72 231 -36 l 231 1 b 63 -172 139 -39 63 -94 b 193 -275 63 -215 94 -275 b 324 -240 256 -275 290 -257 z "},"ˇ":{"ha":386,"x_min":0,"x_max":0,"o":"m 125 828 l 254 828 l 399 1026 l 289 1026 l 193 893 l 100 1026 l -19 1026 z "},"—":{"ha":1389,"x_min":0,"x_max":0,"o":"m 181 321 l 1208 321 l 1208 421 l 181 421 z "},"Æ":{"ha":1389,"x_min":0,"x_max":0,"o":"m 760 279 l 807 0 l 1325 0 l 1325 119 l 926 119 l 868 457 l 1290 457 l 1290 575 l 847 575 l 794 885 l 1310 885 l 1310 1003 l 588 1003 l 3 0 l 156 0 l 315 279 z m 379 392 l 660 900 l 739 392 z "},"ª":{"ha":464,"x_min":0,"x_max":0,"o":"m 415 599 b 408 704 408 654 408 699 l 411 903 b 400 963 413 919 411 938 b 236 1029 378 1008 308 1029 b 118 1004 174 1029 138 1015 b 58 906 64 976 60 926 l 143 906 b 236 975 144 922 147 975 b 329 856 328 975 329 928 b 263 858 318 857 274 858 b 32 710 157 858 32 828 b 189 585 32 626 106 585 b 331 661 285 585 317 638 b 339 599 331 631 336 608 z m 329 801 b 315 704 328 760 326 729 b 211 647 311 696 285 647 b 117 719 135 647 117 693 b 329 801 117 818 292 806 z "},"Ł":{"ha":772,"x_min":0,"x_max":0,"o":"m 129 0 l 733 0 l 733 124 l 267 124 l 267 508 l 535 675 l 535 776 l 267 610 l 267 1003 l 129 1003 l 129 524 l 26 461 l 26 358 l 129 422 z "},"Ø":{"ha":1081,"x_min":0,"x_max":0,"o":"m 886 1110 l 793 965 b 543 1029 756 988 682 1029 b 218 904 422 1029 303 990 b 82 497 103 786 82 613 b 226 82 82 228 181 128 l 94 -122 l 182 -122 l 285 38 b 539 -24 333 13 403 -24 b 999 504 913 -24 999 279 b 853 921 999 651 969 814 l 972 1110 z m 304 204 b 228 501 243 290 228 397 b 543 913 228 703 292 913 b 726 860 656 913 703 879 z m 776 804 b 851 510 836 719 851 614 b 540 94 851 313 794 94 b 356 149 475 94 407 107 z "},"Œ":{"ha":1389,"x_min":0,"x_max":0,"o":"m 1315 119 l 839 119 l 839 457 l 1289 457 l 1289 572 l 839 572 l 839 888 l 1311 888 l 1311 1003 l 672 1003 b 610 1006 664 1003 636 1004 b 546 1007 583 1006 556 1007 b 271 942 432 1007 340 986 b 61 506 108 839 61 669 b 511 0 61 163 274 0 l 1315 0 z m 699 118 b 568 115 631 115 606 115 b 290 218 425 115 340 154 b 206 507 222 304 206 418 b 301 803 206 592 221 717 b 546 897 342 847 410 897 b 699 890 594 897 628 894 z "},"º":{"ha":510,"x_min":0,"x_max":0,"o":"m 289 1028 b 61 803 126 1028 61 918 b 288 583 61 690 125 583 b 514 807 431 583 514 679 b 289 1028 514 890 478 1028 z m 286 643 b 150 808 181 643 150 738 b 290 969 150 886 190 969 b 424 810 400 969 424 879 b 286 643 424 688 351 643 z "},"æ":{"ha":1235,"x_min":0,"x_max":0,"o":"m 1019 215 b 865 75 1018 160 981 75 b 708 168 806 75 743 104 b 675 329 679 218 676 289 l 1157 329 b 1122 568 1157 413 1156 500 b 869 715 1064 688 942 715 b 629 569 847 715 694 715 b 381 714 610 631 558 714 b 190 665 279 714 224 688 b 108 513 117 618 111 544 l 238 513 b 388 621 243 601 324 621 b 556 426 549 621 556 503 b 464 428 529 426 494 428 b 281 417 418 428 344 426 b 69 200 133 393 69 296 b 346 -18 69 101 138 -18 b 617 144 549 -18 599 101 b 879 -19 682 -19 850 -19 b 1153 215 960 -19 1125 10 z m 678 422 b 714 543 681 456 685 503 b 863 618 746 588 797 618 b 1004 529 963 618 997 546 b 1022 422 1021 493 1022 450 z m 556 335 b 521 164 556 285 556 218 b 356 75 496 124 444 75 b 197 197 285 75 197 107 b 390 333 197 324 351 331 b 556 335 451 336 526 335 z "},"ı":{"ha":386,"x_min":0,"x_max":0,"o":"m 129 0 l 254 0 l 254 697 l 129 697 z "},"ł":{"ha":386,"x_min":0,"x_max":0,"o":"m 125 0 l 256 0 l 256 496 l 347 553 l 347 653 l 256 596 l 256 1001 l 125 1001 l 125 515 l 33 458 l 33 358 l 125 415 z "},"ø":{"ha":849,"x_min":0,"x_max":0,"o":"m 663 829 l 578 686 b 415 715 526 706 471 715 b 71 344 185 715 71 547 b 196 43 71 147 161 72 l 85 -144 l 167 -144 l 257 7 b 414 -24 297 -12 351 -24 b 767 349 650 -24 767 146 b 639 650 767 447 743 568 l 746 829 z m 260 151 b 207 350 221 207 207 289 b 421 619 207 481 269 619 b 524 594 458 619 490 611 z m 576 546 b 628 347 618 489 628 418 b 417 74 628 160 526 74 b 313 101 361 74 328 93 z "},"œ":{"ha":1311,"x_min":0,"x_max":0,"o":"m 1104 215 b 947 75 1096 133 1033 75 b 789 164 888 75 822 106 b 757 325 758 215 757 293 l 1243 325 b 1231 499 1244 372 1246 431 b 953 714 1208 607 1119 714 b 689 539 910 714 744 707 b 422 710 665 589 607 710 b 72 342 196 710 72 536 b 415 -21 72 182 161 -21 b 624 53 501 -21 571 4 b 688 144 661 88 676 122 b 761 43 700 118 717 81 b 953 -22 813 1 881 -22 b 1232 215 1039 -22 1208 15 z m 761 421 b 796 546 763 451 767 503 b 947 621 825 588 875 621 b 1085 543 1021 621 1063 588 b 1107 421 1108 497 1107 443 z m 214 353 b 425 614 214 467 260 614 b 629 346 576 614 629 478 b 424 74 629 228 582 74 b 272 142 340 74 296 111 b 214 353 218 214 214 322 z "},"ß":{"ha":926,"x_min":0,"x_max":0,"o":"m 125 0 l 256 0 l 256 729 b 438 932 256 875 307 932 b 610 804 558 932 610 874 b 549 708 610 754 586 736 b 433 543 486 661 433 622 b 539 396 433 482 468 439 l 622 344 b 717 210 668 315 717 283 b 589 85 717 164 692 85 b 476 200 522 85 475 124 l 349 200 b 365 99 349 172 349 140 b 576 -12 403 8 499 -12 b 849 231 721 -12 849 75 b 724 422 849 313 817 363 l 603 501 b 567 561 582 515 567 536 b 663 674 567 600 586 615 b 738 814 711 710 738 746 b 443 1021 738 976 575 1021 b 125 733 146 1021 125 847 z "},"¹":{"ha":463,"x_min":0,"x_max":0,"o":"m 313 394 l 313 971 l 232 971 b 81 881 174 925 128 903 l 81 796 b 226 881 106 807 160 831 l 226 394 z "},"¬":{"ha":811,"x_min":0,"x_max":0,"o":"m 51 436 l 649 436 l 649 154 l 760 154 l 760 543 l 51 543 z "},"µ":{"ha":849,"x_min":0,"x_max":0,"o":"m 124 -290 l 235 -290 l 235 72 b 404 -15 258 42 299 -15 b 603 97 525 -15 578 61 l 603 0 l 706 0 l 706 697 l 593 697 l 593 364 b 558 168 593 283 586 215 b 407 81 519 101 457 81 b 267 158 371 81 306 92 b 235 361 236 211 235 299 l 235 697 l 124 697 z "},"™":{"ha":1389,"x_min":0,"x_max":0,"o":"m 568 501 l 632 501 l 632 951 l 782 501 l 844 501 l 1000 951 l 1000 501 l 1064 501 l 1064 1003 l 956 1003 l 818 590 l 683 1003 l 568 1003 z m 332 501 l 332 943 l 478 943 l 478 1003 l 129 1003 l 129 943 l 271 943 l 271 501 z "},"Ð":{"ha":1003,"x_min":0,"x_max":0,"o":"m 122 0 l 404 0 b 774 82 551 0 675 0 b 940 493 850 143 940 276 b 817 872 940 631 906 768 b 413 1003 706 1003 547 1003 l 122 1003 l 122 597 l 25 597 l 25 513 l 122 513 z m 261 513 l 528 513 l 528 597 l 261 597 l 261 888 l 428 888 b 694 800 550 888 631 871 b 792 488 789 696 792 525 b 660 169 792 429 788 265 b 397 114 593 119 493 114 l 261 114 z "},"½":{"ha":1158,"x_min":0,"x_max":0,"o":"m 203 -39 l 293 -39 l 889 993 l 800 993 z m 265 394 l 265 971 l 186 971 b 33 881 126 925 82 903 l 33 796 b 179 881 60 807 113 831 l 179 394 z m 729 0 l 1126 0 l 1126 65 l 829 65 l 938 163 b 1056 276 958 181 1036 254 b 1125 421 1119 351 1125 385 b 931 588 1125 532 1040 588 b 738 419 871 588 744 568 l 832 419 b 933 519 833 439 835 519 b 1035 426 993 519 1035 486 b 892 224 1035 378 1013 333 l 729 76 z "},"±":{"ha":811,"x_min":0,"x_max":0,"o":"m 347 144 l 464 144 l 464 375 l 760 375 l 760 482 l 464 482 l 464 715 l 347 715 l 347 482 l 51 482 l 51 375 l 347 375 z m 51 -18 l 760 -18 l 760 89 l 51 89 z "},"Þ":{"ha":849,"x_min":0,"x_max":0,"o":"m 122 999 l 122 0 l 261 0 l 261 278 l 424 278 b 726 364 607 278 675 313 b 806 560 781 418 806 483 b 732 754 806 635 782 703 b 458 835 674 817 607 835 l 261 835 l 261 999 z m 261 722 l 456 722 b 658 565 528 722 658 722 b 426 394 658 401 518 394 l 261 394 z "},"¼":{"ha":1158,"x_min":0,"x_max":0,"o":"m 1022 0 l 1022 125 l 1114 125 l 1114 193 l 1022 193 l 1022 585 l 925 585 l 654 224 l 654 125 l 936 125 l 936 0 z m 722 193 l 938 496 l 938 193 z m 203 -39 l 293 -39 l 889 993 l 800 993 z m 265 394 l 265 971 l 186 971 b 33 881 126 925 82 903 l 33 796 b 179 881 60 807 113 831 l 179 394 z "},"÷":{"ha":811,"x_min":0,"x_max":0,"o":"m 51 294 l 760 294 l 760 403 l 51 403 z m 336 14 l 475 14 l 475 179 l 336 179 z m 336 518 l 475 518 l 475 683 l 336 683 z "},"¦":{"ha":361,"x_min":0,"x_max":0,"o":"m 124 938 l 124 451 l 239 451 l 239 938 z m 124 243 l 124 -243 l 239 -243 l 239 243 z "},"°":{"ha":556,"x_min":0,"x_max":0,"o":"m 278 981 b 61 764 158 981 61 885 b 278 547 61 644 158 547 b 494 764 399 547 494 646 b 278 981 494 885 397 981 z m 278 885 b 399 764 344 885 399 831 b 278 643 399 699 346 643 b 157 764 211 643 157 697 b 278 885 157 832 213 885 z "},"þ":{"ha":849,"x_min":0,"x_max":0,"o":"m 118 -268 l 247 -268 l 247 78 b 461 -26 285 17 360 -26 b 779 347 628 -26 779 88 b 486 708 779 606 636 708 b 249 582 429 708 314 692 l 249 1001 l 118 1001 z m 243 328 b 451 611 243 390 243 611 b 643 356 606 611 643 481 b 586 138 643 306 636 206 b 439 69 542 76 472 69 b 243 328 256 69 243 243 z "},"¾":{"ha":1158,"x_min":0,"x_max":0,"o":"m 1038 0 l 1038 125 l 1129 125 l 1129 193 l 1038 193 l 1038 585 l 940 585 l 669 224 l 669 125 l 951 125 l 951 0 z m 739 193 l 953 496 l 953 193 z m 244 -39 l 335 -39 l 931 993 l 840 993 z m 17 542 b 53 440 18 517 19 478 b 221 379 100 390 172 379 b 442 550 360 379 442 458 b 308 690 442 561 442 671 b 433 825 404 710 433 778 b 229 981 433 904 367 981 b 26 824 151 981 31 950 l 118 824 b 232 915 121 879 168 915 b 342 824 279 915 342 899 b 175 724 342 717 201 721 l 175 656 b 351 551 219 658 351 664 b 229 447 351 500 314 447 b 113 542 157 447 111 481 z "},"²":{"ha":463,"x_min":0,"x_max":0,"o":"m 33 394 l 431 394 l 431 460 l 133 460 l 242 556 b 360 671 263 574 340 649 b 429 814 424 744 429 779 b 235 981 429 926 344 981 b 42 814 175 981 49 961 l 136 814 b 238 914 138 832 139 914 b 339 821 297 914 339 881 b 196 618 339 771 317 726 l 33 469 z "},"®":{"ha":1111,"x_min":0,"x_max":0,"o":"m 379 226 l 457 226 l 457 482 l 554 482 b 676 374 646 482 668 460 b 704 226 688 285 693 263 l 785 226 b 751 404 765 282 760 335 b 665 513 743 474 724 499 b 771 649 771 543 771 632 b 579 790 771 790 621 790 l 379 790 z m 457 724 l 579 724 b 690 635 621 724 690 724 b 579 549 690 549 618 549 l 457 549 z m 571 1029 b 46 504 290 1029 46 799 b 571 -24 46 210 288 -24 b 1096 504 857 -24 1096 210 b 571 1029 1096 796 860 1029 z m 571 967 b 1033 504 832 967 1033 753 b 571 38 1033 246 826 38 b 108 504 318 38 108 243 b 571 967 108 758 318 967 z "},"−":{"ha":811,"x_min":0,"x_max":0,"o":"m 51 294 l 760 294 l 760 403 l 51 403 z "},"ð":{"ha":849,"x_min":0,"x_max":0,"o":"m 172 831 l 222 782 l 356 861 b 610 604 476 776 558 696 b 400 703 581 639 528 703 b 75 339 253 703 75 606 b 419 -24 75 94 225 -24 b 775 376 650 -24 775 136 b 464 926 775 688 575 842 l 589 999 l 539 1049 l 401 968 b 261 1053 331 1014 310 1028 l 175 971 b 292 903 203 957 228 943 z m 426 75 b 215 346 283 75 215 200 b 431 615 215 526 307 615 b 636 349 557 615 636 519 b 426 75 636 133 513 75 z "},"×":{"ha":811,"x_min":0,"x_max":0,"o":"m 65 90 l 144 11 l 403 269 l 661 11 l 740 90 l 483 349 l 742 607 l 661 686 l 403 429 l 144 686 l 65 607 l 324 349 z "},"³":{"ha":463,"x_min":0,"x_max":0,"o":"m 17 542 b 53 440 18 517 18 478 b 221 379 99 390 171 379 b 442 550 360 379 442 458 b 308 690 442 561 442 671 b 433 825 404 710 433 778 b 229 981 433 904 367 981 b 26 824 150 981 31 950 l 118 824 b 232 915 121 879 168 915 b 342 824 278 915 342 899 b 175 724 342 717 201 721 l 175 656 b 351 551 218 658 351 664 b 229 447 351 500 314 447 b 111 542 157 447 111 481 z "},"©":{"ha":1111,"x_min":0,"x_max":0,"o":"m 46 503 b 574 -24 46 215 279 -24 b 1100 503 864 -24 1100 213 b 574 1029 1100 793 864 1029 b 46 503 279 1029 46 790 z m 108 503 b 574 967 108 757 314 967 b 1038 503 829 967 1038 757 b 574 39 1038 249 831 39 b 108 503 314 39 108 249 z m 772 643 b 576 814 763 779 654 814 b 336 499 378 814 336 619 b 565 196 336 385 374 196 b 771 363 663 196 760 247 l 688 363 b 572 264 685 343 671 264 b 418 499 444 264 418 390 b 572 747 418 596 439 747 b 690 643 679 747 689 664 z "},"Á":{"ha":1003,"x_min":0,"x_max":0,"o":"m 13 0 l 156 0 l 264 261 l 729 261 l 838 0 l 989 0 l 583 1003 l 435 1003 z m 503 865 l 688 374 l 308 374 z m 533 1292 l 419 1092 l 510 1092 l 678 1292 z "},"Â":{"ha":1003,"x_min":0,"x_max":0,"o":"m 13 0 l 156 0 l 264 261 l 729 261 l 838 0 l 989 0 l 583 1003 l 435 1003 z m 503 865 l 688 374 l 308 374 z m 397 1092 l 496 1225 l 588 1092 l 707 1092 l 563 1293 l 438 1293 l 290 1092 z "},"Ä":{"ha":1003,"x_min":0,"x_max":0,"o":"m 13 0 l 156 0 l 264 261 l 729 261 l 838 0 l 989 0 l 583 1003 l 435 1003 z m 503 865 l 688 374 l 308 374 z m 304 1107 l 432 1107 l 432 1249 l 304 1249 z m 567 1107 l 696 1107 l 696 1249 l 567 1249 z "},"À":{"ha":1003,"x_min":0,"x_max":0,"o":"m 13 0 l 156 0 l 264 261 l 729 261 l 838 0 l 989 0 l 583 1003 l 435 1003 z m 503 865 l 688 374 l 308 374 z m 311 1292 l 499 1092 l 585 1092 l 468 1292 z "},"Å":{"ha":1003,"x_min":0,"x_max":0,"o":"m 13 0 l 156 0 l 264 261 l 729 261 l 838 0 l 989 0 l 583 1003 l 435 1003 z m 503 865 l 688 374 l 308 374 z m 365 1179 b 501 1043 365 1104 426 1043 b 638 1179 576 1043 638 1104 b 501 1315 638 1254 576 1315 b 365 1179 426 1315 365 1254 z m 421 1179 b 501 1260 421 1224 457 1260 b 582 1179 546 1260 582 1224 b 501 1099 582 1135 546 1099 b 421 1179 457 1099 421 1135 z "},"Ã":{"ha":1003,"x_min":0,"x_max":0,"o":"m 13 0 l 156 0 l 264 261 l 729 261 l 838 0 l 989 0 l 583 1003 l 435 1003 z m 503 865 l 688 374 l 308 374 z m 364 1114 b 417 1164 376 1154 396 1164 b 486 1146 425 1164 458 1153 b 574 1128 526 1133 549 1128 b 690 1268 624 1128 693 1161 l 633 1268 b 582 1217 633 1238 615 1217 b 531 1226 565 1217 551 1221 b 424 1250 454 1247 444 1250 b 339 1211 389 1250 360 1236 b 306 1114 319 1188 307 1153 z "},"Ç":{"ha":926,"x_min":0,"x_max":0,"o":"m 719 264 b 671 158 715 240 707 197 b 508 99 628 114 569 99 b 225 492 279 99 225 303 b 510 906 225 658 268 906 b 726 732 703 906 721 767 l 875 732 b 515 1017 857 960 657 1017 b 76 490 157 1017 76 700 b 469 -15 76 265 165 -1 l 397 -115 l 418 -139 b 469 -128 436 -132 449 -128 b 540 -182 492 -128 540 -133 b 465 -237 540 -218 513 -237 b 372 -218 415 -237 388 -226 l 344 -269 b 475 -297 376 -283 408 -297 b 646 -172 643 -297 646 -183 b 536 -74 646 -131 617 -74 b 482 -81 513 -74 496 -78 l 529 -15 b 872 264 688 -6 853 75 z "},"É":{"ha":849,"x_min":0,"x_max":0,"o":"m 106 0 l 746 0 l 746 122 l 244 122 l 244 456 l 711 456 l 711 572 l 244 572 l 244 885 l 735 885 l 735 1003 l 106 1003 z m 457 1292 l 343 1092 l 433 1092 l 601 1292 z "},"Ê":{"ha":849,"x_min":0,"x_max":0,"o":"m 106 0 l 746 0 l 746 122 l 244 122 l 244 456 l 711 456 l 711 572 l 244 572 l 244 885 l 735 885 l 735 1003 l 106 1003 z m 321 1092 l 419 1225 l 511 1092 l 631 1092 l 486 1293 l 361 1293 l 214 1092 z "},"Ë":{"ha":849,"x_min":0,"x_max":0,"o":"m 106 0 l 746 0 l 746 122 l 244 122 l 244 456 l 711 456 l 711 572 l 244 572 l 244 885 l 735 885 l 735 1003 l 106 1003 z m 228 1107 l 356 1107 l 356 1249 l 228 1249 z m 490 1107 l 619 1107 l 619 1249 l 490 1249 z "},"È":{"ha":849,"x_min":0,"x_max":0,"o":"m 106 0 l 746 0 l 746 122 l 244 122 l 244 456 l 711 456 l 711 572 l 244 572 l 244 885 l 735 885 l 735 1003 l 106 1003 z m 235 1292 l 422 1092 l 508 1092 l 392 1292 z "},"Í":{"ha":386,"x_min":0,"x_max":0,"o":"m 122 0 l 261 0 l 261 1003 l 122 1003 z m 225 1292 l 111 1092 l 201 1092 l 369 1292 z "},"Î":{"ha":386,"x_min":0,"x_max":0,"o":"m 122 0 l 261 0 l 261 1003 l 122 1003 z m 89 1092 l 188 1225 l 279 1092 l 399 1092 l 254 1293 l 129 1293 l -18 1092 z "},"Ï":{"ha":386,"x_min":0,"x_max":0,"o":"m 122 0 l 261 0 l 261 1003 l 122 1003 z m -4 1107 l 124 1107 l 124 1249 l -4 1249 z m 258 1107 l 388 1107 l 388 1249 l 258 1249 z "},"Ì":{"ha":386,"x_min":0,"x_max":0,"o":"m 122 0 l 261 0 l 261 1003 l 122 1003 z m 3 1292 l 190 1092 l 276 1092 l 160 1292 z "},"Ñ":{"ha":1081,"x_min":0,"x_max":0,"o":"m 132 0 l 258 0 l 258 851 l 768 0 l 946 0 l 946 1003 l 818 1003 l 818 174 l 325 1003 l 132 1003 z m 403 1114 b 456 1164 415 1154 435 1164 b 525 1146 464 1164 497 1153 b 613 1128 565 1133 588 1128 b 729 1268 663 1128 732 1161 l 672 1268 b 621 1217 672 1238 654 1217 b 569 1226 604 1217 590 1221 b 463 1250 493 1247 483 1250 b 378 1211 428 1250 399 1236 b 344 1114 358 1188 346 1153 z "},"Ó":{"ha":1081,"x_min":0,"x_max":0,"o":"m 82 494 b 535 -24 82 219 193 -24 b 999 511 892 -24 999 244 b 546 1029 999 851 824 1029 b 211 894 453 1029 315 1007 b 82 494 101 776 82 608 z m 228 503 b 547 913 228 708 293 913 b 851 513 776 913 851 740 b 761 186 851 444 843 286 b 539 94 703 117 621 94 b 317 186 460 94 374 115 b 228 503 247 272 228 393 z m 572 1292 l 458 1092 l 549 1092 l 717 1292 z "},"Ô":{"ha":1081,"x_min":0,"x_max":0,"o":"m 82 494 b 535 -24 82 219 193 -24 b 999 511 892 -24 999 244 b 546 1029 999 851 824 1029 b 211 894 453 1029 315 1007 b 82 494 101 776 82 608 z m 228 503 b 547 913 228 708 293 913 b 851 513 776 913 851 740 b 761 186 851 444 843 286 b 539 94 703 117 621 94 b 317 186 460 94 374 115 b 228 503 247 272 228 393 z m 436 1092 l 535 1225 l 626 1092 l 746 1092 l 601 1293 l 476 1293 l 329 1092 z "},"Ö":{"ha":1081,"x_min":0,"x_max":0,"o":"m 82 494 b 535 -24 82 219 193 -24 b 999 511 892 -24 999 244 b 546 1029 999 851 824 1029 b 211 894 453 1029 315 1007 b 82 494 101 776 82 608 z m 228 503 b 547 913 228 708 293 913 b 851 513 776 913 851 740 b 761 186 851 444 843 286 b 539 94 703 117 621 94 b 317 186 460 94 374 115 b 228 503 247 272 228 393 z m 343 1107 l 471 1107 l 471 1249 l 343 1249 z m 606 1107 l 735 1107 l 735 1249 l 606 1249 z "},"Ò":{"ha":1081,"x_min":0,"x_max":0,"o":"m 82 494 b 535 -24 82 219 193 -24 b 999 511 892 -24 999 244 b 546 1029 999 851 824 1029 b 211 894 453 1029 315 1007 b 82 494 101 776 82 608 z m 228 503 b 547 913 228 708 293 913 b 851 513 776 913 851 740 b 761 186 851 444 843 286 b 539 94 703 117 621 94 b 317 186 460 94 374 115 b 228 503 247 272 228 393 z m 350 1292 l 538 1092 l 624 1092 l 507 1292 z "},"Õ":{"ha":1081,"x_min":0,"x_max":0,"o":"m 82 494 b 535 -24 82 219 193 -24 b 999 511 892 -24 999 244 b 546 1029 999 851 824 1029 b 211 894 453 1029 315 1007 b 82 494 101 776 82 608 z m 228 503 b 547 913 228 708 293 913 b 851 513 776 913 851 740 b 761 186 851 444 843 286 b 539 94 703 117 621 94 b 317 186 460 94 374 115 b 228 503 247 272 228 393 z m 403 1114 b 456 1164 415 1154 435 1164 b 525 1146 464 1164 497 1153 b 613 1128 565 1133 588 1128 b 729 1268 663 1128 732 1161 l 672 1268 b 621 1217 672 1238 654 1217 b 569 1226 604 1217 590 1221 b 463 1250 493 1247 483 1250 b 378 1211 428 1250 399 1236 b 344 1114 358 1188 346 1153 z "},"Š":{"ha":926,"x_min":0,"x_max":0,"o":"m 78 293 b 136 90 78 244 79 164 b 447 -24 215 -11 371 -24 b 843 289 704 -24 843 111 b 743 489 843 331 836 428 b 419 594 685 528 658 533 b 239 743 297 624 239 654 b 461 906 239 843 322 906 b 672 753 560 906 665 878 l 817 753 b 756 924 814 794 811 863 b 474 1022 675 1011 540 1022 b 92 729 285 1022 92 933 b 196 532 92 663 114 588 b 468 443 247 497 315 481 b 699 274 608 408 699 386 b 464 94 699 224 672 94 b 222 293 233 94 225 224 z m 396 1092 l 525 1092 l 669 1290 l 560 1290 l 464 1157 l 371 1290 l 251 1290 z "},"Ú":{"ha":1081,"x_min":0,"x_max":0,"o":"m 129 1003 l 129 392 b 188 139 129 242 157 183 b 542 -21 281 6 447 -21 b 865 118 614 -21 767 -6 b 947 385 946 218 947 331 l 947 1003 l 813 1003 l 813 388 b 542 103 813 315 813 103 b 313 201 472 103 375 118 b 268 382 292 231 268 275 l 268 1003 z m 572 1292 l 458 1092 l 549 1092 l 717 1292 z "},"Û":{"ha":1081,"x_min":0,"x_max":0,"o":"m 129 1003 l 129 392 b 188 139 129 242 157 183 b 542 -21 281 6 447 -21 b 865 118 614 -21 767 -6 b 947 385 946 218 947 331 l 947 1003 l 813 1003 l 813 388 b 542 103 813 315 813 103 b 313 201 472 103 375 118 b 268 382 292 231 268 275 l 268 1003 z m 436 1092 l 535 1225 l 626 1092 l 746 1092 l 601 1293 l 476 1293 l 329 1092 z "},"Ü":{"ha":1081,"x_min":0,"x_max":0,"o":"m 129 1003 l 129 392 b 188 139 129 242 157 183 b 542 -21 281 6 447 -21 b 865 118 614 -21 767 -6 b 947 385 946 218 947 331 l 947 1003 l 813 1003 l 813 388 b 542 103 813 315 813 103 b 313 201 472 103 375 118 b 268 382 292 231 268 275 l 268 1003 z m 343 1107 l 471 1107 l 471 1249 l 343 1249 z m 606 1107 l 735 1107 l 735 1249 l 606 1249 z "},"Ù":{"ha":1081,"x_min":0,"x_max":0,"o":"m 129 1003 l 129 392 b 188 139 129 242 157 183 b 542 -21 281 6 447 -21 b 865 118 614 -21 767 -6 b 947 385 946 218 947 331 l 947 1003 l 813 1003 l 813 388 b 542 103 813 315 813 103 b 313 201 472 103 375 118 b 268 382 292 231 268 275 l 268 1003 z m 350 1292 l 538 1092 l 624 1092 l 507 1292 z "},"Ý":{"ha":926,"x_min":0,"x_max":0,"o":"m 401 0 l 542 0 l 542 388 l 933 1003 l 778 1003 l 478 511 l 182 1003 l 10 1003 l 401 394 z m 496 1292 l 382 1092 l 472 1092 l 640 1292 z "},"Ÿ":{"ha":926,"x_min":0,"x_max":0,"o":"m 401 0 l 542 0 l 542 388 l 933 1003 l 778 1003 l 478 511 l 182 1003 l 10 1003 l 401 394 z m 267 1107 l 394 1107 l 394 1249 l 267 1249 z m 529 1107 l 658 1107 l 658 1249 l 529 1249 z "},"Ž":{"ha":849,"x_min":0,"x_max":0,"o":"m 49 0 l 803 0 l 803 122 l 208 122 l 793 865 l 793 1003 l 64 1003 l 64 881 l 628 881 l 49 139 z m 357 1092 l 486 1092 l 631 1290 l 521 1290 l 425 1157 l 332 1290 l 213 1290 z "},"á":{"ha":772,"x_min":0,"x_max":0,"o":"m 665 0 b 654 175 656 71 654 164 l 660 508 b 636 615 660 540 658 574 b 389 718 599 686 490 718 b 164 643 315 718 217 701 b 115 511 124 596 119 547 l 246 511 b 386 629 247 539 254 629 b 507 583 424 629 481 618 b 532 429 532 553 532 515 b 438 433 492 432 471 433 b 196 388 382 433 271 429 b 74 183 93 328 74 239 b 319 -22 74 68 160 -22 b 535 104 378 -22 472 -11 b 547 0 535 68 538 35 z m 532 339 b 499 156 529 242 528 203 b 350 81 467 107 417 81 b 206 201 233 81 206 157 b 457 343 206 343 404 343 b 532 339 489 343 508 342 z m 418 1028 l 304 828 l 394 828 l 563 1028 z "},"â":{"ha":772,"x_min":0,"x_max":0,"o":"m 665 0 b 654 175 656 71 654 164 l 660 508 b 636 615 660 540 658 574 b 389 718 599 686 490 718 b 164 643 315 718 217 701 b 115 511 124 596 119 547 l 246 511 b 386 629 247 539 254 629 b 507 583 424 629 481 618 b 532 429 532 553 532 515 b 438 433 492 432 471 433 b 196 388 382 433 271 429 b 74 183 93 328 74 239 b 319 -22 74 68 160 -22 b 535 104 378 -22 472 -11 b 547 0 535 68 538 35 z m 532 339 b 499 156 529 242 528 203 b 350 81 467 107 417 81 b 206 201 233 81 206 157 b 457 343 206 343 404 343 b 532 339 489 343 508 342 z m 282 828 l 381 961 l 472 828 l 592 828 l 447 1029 l 322 1029 l 175 828 z "},"ä":{"ha":772,"x_min":0,"x_max":0,"o":"m 665 0 b 654 175 656 71 654 164 l 660 508 b 636 615 660 540 658 574 b 389 718 599 686 490 718 b 164 643 315 718 217 701 b 115 511 124 596 119 547 l 246 511 b 386 629 247 539 254 629 b 507 583 424 629 481 618 b 532 429 532 553 532 515 b 438 433 492 432 471 433 b 196 388 382 433 271 429 b 74 183 93 328 74 239 b 319 -22 74 68 160 -22 b 535 104 378 -22 472 -11 b 547 0 535 68 538 35 z m 532 339 b 499 156 529 242 528 203 b 350 81 467 107 417 81 b 206 201 233 81 206 157 b 457 343 206 343 404 343 b 532 339 489 343 508 342 z m 189 857 l 317 857 l 317 999 l 189 999 z m 451 857 l 581 857 l 581 999 l 451 999 z "},"à":{"ha":772,"x_min":0,"x_max":0,"o":"m 665 0 b 654 175 656 71 654 164 l 660 508 b 636 615 660 540 658 574 b 389 718 599 686 490 718 b 164 643 315 718 217 701 b 115 511 124 596 119 547 l 246 511 b 386 629 247 539 254 629 b 507 583 424 629 481 618 b 532 429 532 553 532 515 b 438 433 492 432 471 433 b 196 388 382 433 271 429 b 74 183 93 328 74 239 b 319 -22 74 68 160 -22 b 535 104 378 -22 472 -11 b 547 0 535 68 538 35 z m 532 339 b 499 156 529 242 528 203 b 350 81 467 107 417 81 b 206 201 233 81 206 157 b 457 343 206 343 404 343 b 532 339 489 343 508 342 z m 196 1028 l 383 828 l 469 828 l 353 1028 z "},"å":{"ha":772,"x_min":0,"x_max":0,"o":"m 665 0 b 654 175 656 71 654 164 l 660 508 b 636 615 660 540 658 574 b 389 718 599 686 490 718 b 164 643 315 718 217 701 b 115 511 124 596 119 547 l 246 511 b 386 629 247 539 254 629 b 507 583 424 629 481 618 b 532 429 532 553 532 515 b 438 433 492 432 471 433 b 196 388 382 433 271 429 b 74 183 93 328 74 239 b 319 -22 74 68 160 -22 b 535 104 378 -22 472 -11 b 547 0 535 68 538 35 z m 532 339 b 499 156 529 242 528 203 b 350 81 467 107 417 81 b 206 201 233 81 206 157 b 457 343 206 343 404 343 b 532 339 489 343 508 342 z m 250 929 b 386 793 250 854 311 793 b 522 929 461 793 522 854 b 386 1065 522 1004 461 1065 b 250 929 311 1065 250 1004 z m 306 929 b 386 1010 306 974 342 1010 b 467 929 431 1010 467 974 b 386 849 467 885 431 849 b 306 929 342 849 306 885 z "},"ã":{"ha":772,"x_min":0,"x_max":0,"o":"m 665 0 b 654 175 656 71 654 164 l 660 508 b 636 615 660 540 658 574 b 389 718 599 686 490 718 b 164 643 315 718 217 701 b 115 511 124 596 119 547 l 246 511 b 386 629 247 539 254 629 b 507 583 424 629 481 618 b 532 429 532 553 532 515 b 438 433 492 432 471 433 b 196 388 382 433 271 429 b 74 183 93 328 74 239 b 319 -22 74 68 160 -22 b 535 104 378 -22 472 -11 b 547 0 535 68 538 35 z m 532 339 b 499 156 529 242 528 203 b 350 81 467 107 417 81 b 206 201 233 81 206 157 b 457 343 206 343 404 343 b 532 339 489 343 508 342 z m 249 850 b 301 900 261 890 281 900 b 371 882 310 900 343 889 b 458 864 411 869 433 864 b 575 1004 508 864 578 897 l 518 1004 b 467 953 518 974 500 953 b 415 963 450 953 436 957 b 308 986 339 983 329 986 b 224 947 274 986 244 972 b 190 850 204 924 192 889 z "},"ç":{"ha":694,"x_min":0,"x_max":0,"o":"m 525 232 b 374 81 522 164 485 81 b 200 357 235 81 200 214 b 381 619 200 410 200 619 b 519 474 507 619 517 506 l 651 474 b 593 629 649 513 644 569 b 379 715 529 706 425 715 b 63 333 251 715 63 643 b 339 -17 63 171 122 8 l 268 -115 l 289 -139 b 339 -128 307 -132 319 -128 b 410 -182 361 -128 410 -133 b 335 -237 410 -218 382 -237 b 242 -218 285 -237 258 -226 l 215 -269 b 344 -297 246 -283 279 -297 b 515 -172 514 -297 515 -183 b 406 -74 515 -131 488 -74 b 351 -81 382 -74 365 -78 l 397 -17 b 657 232 557 -7 650 101 z "},"é":{"ha":772,"x_min":0,"x_max":0,"o":"m 703 325 b 400 715 706 439 713 715 b 210 664 360 715 276 711 b 72 336 100 588 72 474 b 396 -21 72 115 176 -21 b 636 72 536 -21 606 38 b 696 218 686 126 692 183 l 565 218 b 401 74 554 118 486 74 b 201 325 258 74 199 181 z m 207 417 b 397 622 210 571 313 622 b 569 417 558 622 571 483 z m 418 1028 l 304 828 l 394 828 l 563 1028 z "},"ê":{"ha":772,"x_min":0,"x_max":0,"o":"m 703 325 b 400 715 706 439 713 715 b 210 664 360 715 276 711 b 72 336 100 588 72 474 b 396 -21 72 115 176 -21 b 636 72 536 -21 606 38 b 696 218 686 126 692 183 l 565 218 b 401 74 554 118 486 74 b 201 325 258 74 199 181 z m 207 417 b 397 622 210 571 313 622 b 569 417 558 622 571 483 z m 282 828 l 381 961 l 472 828 l 592 828 l 447 1029 l 322 1029 l 175 828 z "},"ë":{"ha":772,"x_min":0,"x_max":0,"o":"m 703 325 b 400 715 706 439 713 715 b 210 664 360 715 276 711 b 72 336 100 588 72 474 b 396 -21 72 115 176 -21 b 636 72 536 -21 606 38 b 696 218 686 126 692 183 l 565 218 b 401 74 554 118 486 74 b 201 325 258 74 199 181 z m 207 417 b 397 622 210 571 313 622 b 569 417 558 622 571 483 z m 189 857 l 317 857 l 317 999 l 189 999 z m 451 857 l 581 857 l 581 999 l 451 999 z "},"è":{"ha":772,"x_min":0,"x_max":0,"o":"m 703 325 b 400 715 706 439 713 715 b 210 664 360 715 276 711 b 72 336 100 588 72 474 b 396 -21 72 115 176 -21 b 636 72 536 -21 606 38 b 696 218 686 126 692 183 l 565 218 b 401 74 554 118 486 74 b 201 325 258 74 199 181 z m 207 417 b 397 622 210 571 313 622 b 569 417 558 622 571 483 z m 196 1028 l 383 828 l 469 828 l 353 1028 z "},"í":{"ha":386,"x_min":0,"x_max":0,"o":"m 129 0 l 254 0 l 254 697 l 129 697 z m 225 1028 l 111 828 l 201 828 l 369 1028 z "},"î":{"ha":386,"x_min":0,"x_max":0,"o":"m 129 0 l 254 0 l 254 697 l 129 697 z m 89 828 l 188 961 l 279 828 l 399 828 l 254 1029 l 129 1029 l -18 828 z "},"ï":{"ha":386,"x_min":0,"x_max":0,"o":"m 129 0 l 254 0 l 254 697 l 129 697 z m -4 857 l 124 857 l 124 999 l -4 999 z m 258 857 l 388 857 l 388 999 l 258 999 z "},"ì":{"ha":386,"x_min":0,"x_max":0,"o":"m 129 0 l 254 0 l 254 697 l 129 697 z m 3 1028 l 190 828 l 276 828 l 160 1028 z "},"ñ":{"ha":849,"x_min":0,"x_max":0,"o":"m 126 0 l 257 0 l 257 401 b 439 610 257 542 344 610 b 563 563 483 610 529 594 b 600 443 594 531 600 489 l 600 0 l 733 0 l 733 474 b 481 711 733 688 543 711 b 257 585 322 711 272 614 l 256 697 l 125 697 l 126 617 z m 288 850 b 340 900 300 890 319 900 b 410 882 349 900 382 889 b 497 864 450 869 472 864 b 614 1004 547 864 617 897 l 557 1004 b 506 953 557 974 539 953 b 454 963 489 953 475 957 b 347 986 378 983 368 986 b 263 947 313 986 283 972 b 229 850 243 924 231 889 z "},"ó":{"ha":849,"x_min":0,"x_max":0,"o":"m 71 340 b 414 -24 71 136 183 -24 b 767 350 651 -24 767 146 b 425 715 767 496 704 715 b 71 340 151 715 71 513 z m 207 349 b 425 619 207 567 342 619 b 628 354 547 619 628 528 b 417 74 628 144 515 74 b 207 349 268 74 207 206 z m 457 1028 l 343 828 l 433 828 l 601 1028 z "},"ô":{"ha":849,"x_min":0,"x_max":0,"o":"m 71 340 b 414 -24 71 136 183 -24 b 767 350 651 -24 767 146 b 425 715 767 496 704 715 b 71 340 151 715 71 513 z m 207 349 b 425 619 207 567 342 619 b 628 354 547 619 628 528 b 417 74 628 144 515 74 b 207 349 268 74 207 206 z m 321 828 l 419 961 l 511 828 l 631 828 l 486 1029 l 361 1029 l 214 828 z "},"ö":{"ha":849,"x_min":0,"x_max":0,"o":"m 71 340 b 414 -24 71 136 183 -24 b 767 350 651 -24 767 146 b 425 715 767 496 704 715 b 71 340 151 715 71 513 z m 207 349 b 425 619 207 567 342 619 b 628 354 547 619 628 528 b 417 74 628 144 515 74 b 207 349 268 74 207 206 z m 228 857 l 356 857 l 356 999 l 228 999 z m 490 857 l 619 857 l 619 999 l 490 999 z "},"ò":{"ha":849,"x_min":0,"x_max":0,"o":"m 71 340 b 414 -24 71 136 183 -24 b 767 350 651 -24 767 146 b 425 715 767 496 704 715 b 71 340 151 715 71 513 z m 207 349 b 425 619 207 567 342 619 b 628 354 547 619 628 528 b 417 74 628 144 515 74 b 207 349 268 74 207 206 z m 235 1028 l 422 828 l 508 828 l 392 1028 z "},"õ":{"ha":849,"x_min":0,"x_max":0,"o":"m 71 340 b 414 -24 71 136 183 -24 b 767 350 651 -24 767 146 b 425 715 767 496 704 715 b 71 340 151 715 71 513 z m 207 349 b 425 619 207 567 342 619 b 628 354 547 619 628 528 b 417 74 628 144 515 74 b 207 349 268 74 207 206 z m 288 850 b 340 900 300 890 319 900 b 410 882 349 900 382 889 b 497 864 450 869 472 864 b 614 1004 547 864 617 897 l 557 1004 b 506 953 557 974 539 953 b 454 963 489 953 475 957 b 347 986 378 983 368 986 b 263 947 313 986 283 972 b 229 850 243 924 231 889 z "},"š":{"ha":694,"x_min":0,"x_max":0,"o":"m 60 207 b 332 -19 58 39 190 -19 b 539 28 404 -19 478 -10 b 633 204 590 60 633 126 b 581 333 633 249 619 297 b 304 429 539 372 497 383 b 206 518 268 439 206 454 b 347 618 206 618 328 618 b 482 504 394 618 486 610 l 615 504 b 597 606 615 533 615 567 b 346 714 556 689 433 714 b 74 503 185 714 74 631 b 342 294 74 357 196 328 b 494 190 446 271 494 258 b 472 125 494 167 486 143 b 350 81 444 90 404 81 b 197 207 224 81 196 154 z m 279 828 l 408 828 l 553 1026 l 443 1026 l 347 893 l 254 1026 l 135 1026 z "},"ú":{"ha":849,"x_min":0,"x_max":0,"o":"m 108 697 l 108 229 b 361 -7 108 92 189 -7 b 583 119 511 -7 558 71 l 586 0 l 722 0 b 718 131 721 39 718 117 l 718 697 l 583 697 l 583 303 b 554 172 583 268 583 214 b 390 94 517 117 456 94 b 242 249 257 94 242 181 l 242 697 z m 457 1028 l 343 828 l 433 828 l 601 1028 z "},"û":{"ha":849,"x_min":0,"x_max":0,"o":"m 108 697 l 108 229 b 361 -7 108 92 189 -7 b 583 119 511 -7 558 71 l 586 0 l 722 0 b 718 131 721 39 718 117 l 718 697 l 583 697 l 583 303 b 554 172 583 268 583 214 b 390 94 517 117 456 94 b 242 249 257 94 242 181 l 242 697 z m 321 828 l 419 961 l 511 828 l 631 828 l 486 1029 l 361 1029 l 214 828 z "},"ü":{"ha":849,"x_min":0,"x_max":0,"o":"m 108 697 l 108 229 b 361 -7 108 92 189 -7 b 583 119 511 -7 558 71 l 586 0 l 722 0 b 718 131 721 39 718 117 l 718 697 l 583 697 l 583 303 b 554 172 583 268 583 214 b 390 94 517 117 456 94 b 242 249 257 94 242 181 l 242 697 z m 228 857 l 356 857 l 356 999 l 228 999 z m 490 857 l 619 857 l 619 999 l 490 999 z "},"ù":{"ha":849,"x_min":0,"x_max":0,"o":"m 108 697 l 108 229 b 361 -7 108 92 189 -7 b 583 119 511 -7 558 71 l 586 0 l 722 0 b 718 131 721 39 718 117 l 718 697 l 583 697 l 583 303 b 554 172 583 268 583 214 b 390 94 517 117 456 94 b 242 249 257 94 242 181 l 242 697 z m 235 1028 l 422 828 l 508 828 l 392 1028 z "},"ý":{"ha":772,"x_min":0,"x_max":0,"o":"m 746 697 l 604 697 l 382 147 l 164 697 l 17 697 l 307 3 l 201 -264 l 336 -264 l 436 -4 z m 418 1028 l 304 828 l 394 828 l 563 1028 z "},"ÿ":{"ha":772,"x_min":0,"x_max":0,"o":"m 746 697 l 604 697 l 382 147 l 164 697 l 17 697 l 307 3 l 201 -264 l 336 -264 l 436 -4 z m 189 857 l 317 857 l 317 999 l 189 999 z m 451 857 l 581 857 l 581 999 l 451 999 z "},"ž":{"ha":617,"x_min":0,"x_max":0,"o":"m 42 0 l 563 0 l 563 101 l 178 101 l 563 586 l 563 697 l 61 697 l 61 599 l 414 599 l 42 135 z m 240 828 l 369 828 l 514 1026 l 404 1026 l 308 893 l 215 1026 l 96 1026 z "},"Ω":{"ha":996,"x_min":0,"x_max":0,"o":"m 268 99 l 64 99 l 64 0 l 406 0 l 406 72 b 206 500 304 136 206 296 b 500 879 206 713 321 879 b 789 506 690 879 788 683 b 588 72 789 285 690 139 l 588 0 l 929 0 l 929 99 l 724 99 l 724 103 b 910 528 817 181 910 332 b 501 979 910 760 756 979 b 83 521 261 979 83 786 b 268 103 83 332 172 188 z "},"μ":{"ha":849,"x_min":0,"x_max":0,"o":"m 124 -290 l 235 -290 l 235 72 b 404 -15 258 42 299 -15 b 603 97 525 -15 578 61 l 603 0 l 706 0 l 706 697 l 593 697 l 593 364 b 558 168 593 283 586 215 b 407 81 519 101 457 81 b 267 158 371 81 306 92 b 235 361 236 211 235 299 l 235 697 l 124 697 z "},"π":{"ha":800,"x_min":0,"x_max":0,"o":"m 764 617 l 775 718 l 217 718 b 11 679 107 718 46 701 l 28 600 b 179 617 57 610 97 617 b 82 0 174 439 133 151 l 199 0 b 297 617 250 133 290 444 l 536 617 l 536 196 b 560 0 536 85 546 24 l 675 0 b 656 204 665 39 656 92 l 656 617 z "},"€":{"ha":772,"x_min":0,"x_max":0,"o":"m 7 325 l 115 325 b 465 -18 147 115 260 -18 b 763 250 710 -18 763 169 l 763 254 l 636 254 b 463 88 633 150 564 88 b 246 325 336 88 271 192 l 493 325 l 521 418 l 236 418 b 233 485 235 440 233 463 b 235 514 233 494 235 504 l 538 514 l 565 607 l 244 607 b 471 868 271 757 358 868 b 636 692 499 868 631 858 l 761 692 b 471 974 757 882 625 974 b 114 607 275 974 147 822 l 35 607 l 7 514 l 104 514 b 101 479 104 503 101 490 b 104 418 101 458 103 439 l 35 418 z "},"ℓ":{"ha":682,"x_min":0,"x_max":0,"o":"m 596 215 b 410 82 561 153 494 82 b 264 282 333 82 265 142 l 264 329 b 547 831 435 496 547 658 b 371 1060 547 957 492 1060 b 150 724 260 1060 150 974 l 150 353 b 39 257 117 319 78 290 l 74 189 b 151 253 100 210 126 233 l 151 235 b 385 -14 160 103 225 -14 b 650 165 493 -14 586 43 z m 264 731 b 372 971 264 913 324 971 b 467 831 442 971 467 914 b 264 444 467 703 379 571 z "},"℮":{"ha":1206,"x_min":0,"x_max":0,"o":"m 1157 467 l 1157 481 b 601 981 1157 757 910 981 b 47 481 296 981 47 757 b 601 -18 47 204 296 -18 b 1040 175 781 -18 942 58 l 961 175 b 603 10 874 75 746 10 b 263 157 469 10 350 67 b 251 189 256 167 251 176 l 251 461 b 258 467 251 465 254 467 z m 953 501 b 947 493 953 499 951 493 l 258 493 b 251 501 254 493 251 499 l 251 769 b 264 804 251 783 256 794 b 603 950 351 893 471 950 b 940 808 735 950 853 894 b 953 776 949 800 953 788 z "},"∂":{"ha":767,"x_min":0,"x_max":0,"o":"m 142 914 b 325 981 179 944 240 981 b 579 590 467 981 579 818 b 578 533 579 575 579 549 l 576 533 b 353 661 556 574 478 661 b 57 307 194 661 57 524 b 329 -14 57 153 144 -14 b 696 557 568 -14 696 231 b 339 1079 696 910 524 1079 b 103 1003 222 1079 147 1038 z m 339 86 b 176 306 240 86 176 181 b 374 564 176 447 264 564 b 565 421 476 564 546 478 b 340 86 547 250 467 86 z "},"∏":{"ha":976,"x_min":0,"x_max":0,"o":"m 939 854 l 939 964 l 35 964 l 35 854 l 185 854 l 185 -133 l 303 -133 l 303 854 l 672 854 l 672 -133 l 790 -133 l 790 854 z "},"∑":{"ha":769,"x_min":0,"x_max":0,"o":"m 739 -133 l 739 -21 l 183 -21 l 183 -17 l 532 432 l 211 856 l 211 861 l 717 861 l 717 964 l 47 964 l 47 879 l 396 414 l 32 -54 l 32 -133 z "},"∙":{"ha":386,"x_min":0,"x_max":0,"o":"m 113 321 l 267 321 l 267 489 l 113 489 z "},"√":{"ha":799,"x_min":0,"x_max":0,"o":"m 801 1147 l 714 1147 l 461 42 b 442 -64 454 4 446 -36 l 440 -62 b 415 40 435 -35 424 4 l 246 539 l 46 460 l 69 389 l 172 429 l 390 -203 l 493 -203 z "},"∞":{"ha":1075,"x_min":0,"x_max":0,"o":"m 1006 400 b 801 617 1006 528 921 617 b 544 454 683 617 613 531 b 289 617 471 542 393 617 b 69 393 163 617 69 522 b 278 175 69 268 167 175 b 539 338 392 175 467 253 b 792 175 635 225 706 175 b 1006 399 901 175 1006 261 z m 289 246 b 144 392 203 246 146 313 b 281 547 144 476 194 547 b 499 390 378 547 438 467 b 290 246 443 329 376 246 z m 793 547 b 931 393 872 547 931 489 b 796 246 931 324 882 246 b 582 399 722 246 672 296 b 792 547 629 447 700 547 z "},"∫":{"ha":506,"x_min":0,"x_max":0,"o":"m 482 1163 b 404 1181 467 1171 435 1181 b 267 1125 354 1181 303 1163 b 192 828 211 1067 192 981 b 210 131 192 606 210 363 b 165 -103 210 -7 192 -68 b 101 -133 149 -124 125 -133 b 39 -117 74 -133 51 -122 l 21 -203 b 114 -225 38 -214 76 -225 b 261 -149 171 -225 229 -201 b 318 129 292 -99 318 -14 b 299 817 318 360 299 599 b 343 1060 299 943 310 1019 b 414 1093 363 1083 390 1093 b 464 1079 432 1093 453 1086 z "},"≈":{"ha":776,"x_min":0,"x_max":0,"o":"m 667 601 b 536 499 628 536 592 499 b 407 547 488 499 457 521 b 254 603 369 568 321 603 b 61 469 172 603 103 550 l 108 428 b 244 531 143 481 181 531 b 372 483 292 531 331 508 b 533 426 438 446 476 426 b 714 560 617 426 675 485 z m 667 360 b 536 258 628 294 593 258 b 407 308 486 258 453 283 b 254 363 369 328 322 363 b 61 228 172 363 103 310 l 108 188 b 246 290 143 240 181 290 b 372 243 290 290 329 268 b 533 186 438 207 476 186 b 714 318 617 186 675 244 z "},"≠":{"ha":776,"x_min":0,"x_max":0,"o":"m 556 699 l 496 725 l 424 565 l 69 565 l 69 492 l 394 492 l 304 292 l 69 292 l 69 218 l 274 218 l 211 82 l 271 56 l 344 218 l 706 218 l 706 292 l 374 292 l 465 492 l 706 492 l 706 565 l 494 565 z "},"≤":{"ha":776,"x_min":0,"x_max":0,"o":"m 703 133 l 703 222 l 156 483 l 156 486 l 701 746 l 701 835 l 78 524 l 78 444 z m 707 1 l 707 78 l 71 78 l 71 1 z "},"≥":{"ha":776,"x_min":0,"x_max":0,"o":"m 79 835 l 79 746 l 624 485 l 624 482 l 79 222 l 79 133 l 704 444 l 704 524 z m 706 1 l 706 78 l 71 78 l 71 1 z "},"◊":{"ha":799,"x_min":0,"x_max":0,"o":"m 724 481 l 449 1026 l 353 1026 l 74 481 l 349 -64 l 444 -64 z m 617 478 l 426 104 b 401 33 418 88 407 51 l 396 33 b 372 106 393 51 383 78 l 182 483 l 369 853 b 397 928 382 879 390 906 l 400 928 b 426 853 406 907 417 876 z "}," ":{"ha":386,"x_min":0,"x_max":0,"o":""},"­":{"ha":463,"x_min":0,"x_max":0,"o":"m 58 313 l 407 313 l 407 418 l 58 418 z "},"ˉ":{"ha":386,"x_min":0,"x_max":0,"o":"m 0 892 l 382 892 l 382 965 l 0 965 z "},"Ω":{"ha":996,"x_min":0,"x_max":0,"o":"m 268 99 l 64 99 l 64 0 l 406 0 l 406 72 b 206 500 304 136 206 296 b 500 879 206 713 321 879 b 789 506 690 879 788 683 b 588 72 789 285 690 139 l 588 0 l 929 0 l 929 99 l 724 99 l 724 103 b 910 528 817 181 910 332 b 501 979 910 760 756 979 b 83 521 261 979 83 786 b 268 103 83 332 172 188 z "},"∕":{"ha":232,"x_min":0,"x_max":0,"o":"m -233 -39 l -143 -39 l 453 993 l 364 993 z "},"∆":{"ha":901,"x_min":0,"x_max":0,"o":"m 42 0 l 858 0 l 858 79 l 524 989 l 383 989 l 42 78 z m 164 97 l 365 619 b 446 853 389 694 433 803 l 450 853 b 539 599 468 790 515 672 l 729 97 z "},"‐":{"ha":463,"x_min":0,"x_max":0,"o":"m 58 313 l 407 313 l 407 418 l 58 418 z "}}}
